<svg version="1.1" viewBox="0.0 0.0 230.0 229.0" fill="none" stroke="none" stroke-linecap="square" stroke-miterlimit="10" width="230" height="229" xmlns:xlink="http://www.w3.org/1999/xlink" xmlns="http://www.w3.org/2000/svg"><path fill="#ffffff" d="M0 0L230.0 0L230.0 229.0L0 229.0L0 0Z" fill-rule="nonzero"/><path stroke="#333333" stroke-width="1.0" stroke-linecap="butt" d="M44.5 192.5L218.5 192.5" fill-rule="nonzero"/><path stroke="#cccccc" stroke-width="1.0" stroke-linecap="butt" d="M44.5 157.5L218.5 157.5" fill-rule="nonzero"/><path stroke="#cccccc" stroke-width="1.0" stroke-linecap="butt" d="M44.5 122.5L218.5 122.5" fill-rule="nonzero"/><path stroke="#cccccc" stroke-width="1.0" stroke-linecap="butt" d="M44.5 87.5L218.5 87.5" fill-rule="nonzero"/><path stroke="#cccccc" stroke-width="1.0" stroke-linecap="butt" d="M44.5 52.5L218.5 52.5" fill-rule="nonzero"/><path stroke="#cccccc" stroke-width="1.0" stroke-linecap="butt" d="M44.5 17.5L218.5 17.5" fill-rule="nonzero"/><clipPath id="id_0"><path d="M44.145313 17.45L218.55 17.45L218.55 192.5L44.145313 192.5L44.145313 17.45Z" clip-rule="nonzero"/></clipPath><path stroke="#4285f4" stroke-width="2.0" stroke-linecap="butt" clip-path="url(#id_0)" d="M94.24027 22.147432L94.24027 40.97651" fill-rule="nonzero"/><path stroke="#4285f4" stroke-width="2.0" stroke-linecap="butt" clip-path="url(#id_0)" d="M94.24027 40.97651L94.24027 22.147432" fill-rule="nonzero"/><path fill="#4285f4" clip-path="url(#id_0)" d="M69.120476 21.147432L119.36007 21.147432L119.36007 41.97651L69.120476 41.97651L69.120476 21.147432Z" fill-rule="nonzero"/><path stroke="#4285f4" stroke-width="2.0" stroke-linecap="butt" clip-path="url(#id_0)" d="M168.45503 23.764753L168.45503 46.241943" fill-rule="nonzero"/><path stroke="#4285f4" stroke-width="2.0" stroke-linecap="butt" clip-path="url(#id_0)" d="M168.45503 46.241943L168.45503 23.764753" fill-rule="nonzero"/><path fill="#4285f4" clip-path="url(#id_0)" d="M143.33524 22.764753L193.57483 22.764753L193.57483 47.241943L143.33524 47.241943L143.33524 22.764753Z" fill-rule="nonzero"/><path fill="#000000" d="M61.691406 225.35973L61.691406 216.76598L64.30078 216.76598L65.84766 222.62535L67.39453 216.76598L69.98828 216.76598L69.98828 225.35973L68.37891 225.35973L68.37891 218.5941L66.67578 225.35973L65.00391 225.35973L63.316406 218.5941L63.316406 225.35973L61.691406 225.35973ZM72.94141 221.0316L71.44141 220.76598Q71.69141 219.85973 72.30078 219.43785Q72.92578 219.00035 74.14453 219.00035Q75.23828 219.00035 75.76953 219.26598Q76.31641 219.51598 76.53516 219.92223Q76.75391 220.31285 76.75391 221.39098L76.73828 223.31285Q76.73828 224.14098 76.81641 224.5316Q76.89453 224.9066 77.11328 225.35973L75.48828 225.35973Q75.42578 225.18785 75.33203 224.87535Q75.28516 224.7191 75.26953 224.67223Q74.84766 225.0941 74.36328 225.29723Q73.89453 225.50035 73.34766 225.50035Q72.37891 225.50035 71.81641 224.98473Q71.26953 224.45348 71.26953 223.6566Q71.26953 223.12535 71.51953 222.7191Q71.78516 222.31285 72.23828 222.0941Q72.69141 221.85973 73.55078 221.70348Q74.69141 221.48473 75.14453 221.29723L75.14453 221.14098Q75.14453 220.6566 74.91016 220.45348Q74.67578 220.25035 74.01953 220.25035Q73.58203 220.25035 73.33203 220.42223Q73.09766 220.5941 72.94141 221.0316ZM75.14453 222.37535Q74.83203 222.4691 74.14453 222.62535Q73.45703 222.76598 73.23828 222.9066Q72.92578 223.14098 72.92578 223.48473Q72.92578 223.82848 73.17578 224.0941Q73.44141 224.3441 73.83203 224.3441Q74.28516 224.3441 74.69141 224.04723Q74.98828 223.82848 75.08203 223.50035Q75.14453 223.29723 75.14453 222.70348L75.14453 222.37535ZM84.12891 220.9691L82.51953 221.26598Q82.42578 220.7816 82.12891 220.54723Q81.84766 220.29723 81.39453 220.29723Q80.76953 220.29723 80.39453 220.7191Q80.03516 221.14098 80.03516 222.14098Q80.03516 223.25035 80.41016 223.70348Q80.78516 224.1566 81.41016 224.1566Q81.87891 224.1566 82.17578 223.89098Q82.47266 223.62535 82.59766 222.9691L84.22266 223.25035Q83.97266 224.35973 83.25391 224.93785Q82.53516 225.50035 81.33203 225.50035Q79.97266 225.50035 79.16016 224.64098Q78.34766 223.7816 78.34766 222.25035Q78.34766 220.7191 79.16016 219.85973Q79.97266 219.00035 81.36328 219.00035Q82.50391 219.00035 83.17578 219.48473Q83.84766 219.9691 84.12891 220.9691ZM91.12891 220.9691L89.51953 221.26598Q89.42578 220.7816 89.12891 220.54723Q88.84766 220.29723 88.39453 220.29723Q87.76953 220.29723 87.39453 220.7191Q87.03516 221.14098 87.03516 222.14098Q87.03516 223.25035 87.41016 223.70348Q87.78516 224.1566 88.41016 224.1566Q88.87891 224.1566 89.17578 223.89098Q89.47266 223.62535 89.59766 222.9691L91.22266 223.25035Q90.97266 224.35973 90.25391 224.93785Q89.53516 225.50035 88.33203 225.50035Q86.97266 225.50035 86.16016 224.64098Q85.34766 223.7816 85.34766 222.25035Q85.34766 220.7191 86.16016 219.85973Q86.97266 219.00035 88.36328 219.00035Q89.50391 219.00035 90.17578 219.48473Q90.84766 219.9691 91.12891 220.9691ZM94.34766 216.76598L94.34766 219.92223Q95.14453 219.00035 96.25391 219.00035Q96.81641 219.00035 97.26953 219.2191Q97.73828 219.42223 97.97266 219.75035Q98.20703 220.07848 98.28516 220.48473Q98.36328 220.87535 98.36328 221.70348L98.36328 225.35973L96.72266 225.35973L96.72266 222.07848Q96.72266 221.0941 96.62891 220.82848Q96.53516 220.56285 96.30078 220.4066Q96.06641 220.25035 95.70703 220.25035Q95.30078 220.25035 94.97266 220.45348Q94.64453 220.6566 94.48828 221.06285Q94.34766 221.45348 94.34766 222.23473L94.34766 225.35973L92.70703 225.35973L92.70703 216.76598L94.34766 216.76598ZM99.70703 218.29723L99.70703 216.76598L101.36328 216.76598L101.36328 218.29723L99.70703 218.29723ZM99.70703 225.35973L99.70703 219.14098L101.36328 219.14098L101.36328 225.35973L99.70703 225.35973ZM108.36328 225.35973L106.72266 225.35973L106.72266 222.18785Q106.72266 221.17223 106.61328 220.87535Q106.51953 220.57848 106.26953 220.42223Q106.03516 220.25035 105.70703 220.25035Q105.26953 220.25035 104.92578 220.48473Q104.59766 220.7191 104.47266 221.10973Q104.34766 221.50035 104.34766 222.54723L104.34766 225.35973L102.69141 225.35973L102.69141 219.14098L104.22266 219.14098L104.22266 220.04723Q105.03516 219.00035 106.28516 219.00035Q106.81641 219.00035 107.26953 219.20348Q107.72266 219.39098 107.95703 219.70348Q108.19141 220.00035 108.26953 220.39098Q108.36328 220.76598 108.36328 221.48473L108.36328 225.35973ZM110.94141 221.0316L109.44141 220.76598Q109.69141 219.85973 110.30078 219.43785Q110.92578 219.00035 112.14453 219.00035Q113.23828 219.00035 113.76953 219.26598Q114.31641 219.51598 114.53516 219.92223Q114.75391 220.31285 114.75391 221.39098L114.73828 223.31285Q114.73828 224.14098 114.81641 224.5316Q114.89453 224.9066 115.11328 225.35973L113.48828 225.35973Q113.42578 225.18785 113.33203 224.87535Q113.28516 224.7191 113.26953 224.67223Q112.84766 225.0941 112.36328 225.29723Q111.89453 225.50035 111.34766 225.50035Q110.37891 225.50035 109.81641 224.98473Q109.26953 224.45348 109.26953 223.6566Q109.26953 223.12535 109.51953 222.7191Q109.78516 222.31285 110.23828 222.0941Q110.69141 221.85973 111.55078 221.70348Q112.69141 221.48473 113.14453 221.29723L113.14453 221.14098Q113.14453 220.6566 112.91016 220.45348Q112.67578 220.25035 112.01953 220.25035Q111.58203 220.25035 111.33203 220.42223Q111.09766 220.5941 110.94141 221.0316ZM113.14453 222.37535Q112.83203 222.4691 112.14453 222.62535Q111.45703 222.76598 111.23828 222.9066Q110.92578 223.14098 110.92578 223.48473Q110.92578 223.82848 111.17578 224.0941Q111.44141 224.3441 111.83203 224.3441Q112.28516 224.3441 112.69141 224.04723Q112.98828 223.82848 113.08203 223.50035Q113.14453 223.29723 113.14453 222.70348L113.14453 222.37535ZM127.47266 225.35973L125.58203 225.35973L124.83203 223.4066L121.39453 223.4066L120.69141 225.35973L118.84766 225.35973L122.19141 216.76598L124.03516 216.76598L127.47266 225.35973ZM124.26953 221.95348L123.09766 218.76598L121.92578 221.95348L124.26953 221.95348ZM136.6914 225.35973L136.6914 216.76598L139.30078 216.76598L140.84766 222.62535L142.39453 216.76598L144.98828 216.76598L144.98828 225.35973L143.3789 225.35973L143.3789 218.5941L141.67578 225.35973L140.0039 225.35973L138.3164 218.5941L138.3164 225.35973L136.6914 225.35973ZM147.9414 221.0316L146.4414 220.76598Q146.6914 219.85973 147.30078 219.43785Q147.92578 219.00035 149.14453 219.00035Q150.23828 219.00035 150.76953 219.26598Q151.3164 219.51598 151.53516 219.92223Q151.7539 220.31285 151.7539 221.39098L151.73828 223.31285Q151.73828 224.14098 151.8164 224.5316Q151.89453 224.9066 152.11328 225.35973L150.48828 225.35973Q150.42578 225.18785 150.33203 224.87535Q150.28516 224.7191 150.26953 224.67223Q149.84766 225.0941 149.36328 225.29723Q148.89453 225.50035 148.34766 225.50035Q147.3789 225.50035 146.8164 224.98473Q146.26953 224.45348 146.26953 223.6566Q146.26953 223.12535 146.51953 222.7191Q146.78516 222.31285 147.23828 222.0941Q147.6914 221.85973 148.55078 221.70348Q149.6914 221.48473 150.14453 221.29723L150.14453 221.14098Q150.14453 220.6566 149.91016 220.45348Q149.67578 220.25035 149.01953 220.25035Q148.58203 220.25035 148.33203 220.42223Q148.09766 220.5941 147.9414 221.0316ZM150.14453 222.37535Q149.83203 222.4691 149.14453 222.62535Q148.45703 222.76598 148.23828 222.9066Q147.92578 223.14098 147.92578 223.48473Q147.92578 223.82848 148.17578 224.0941Q148.4414 224.3441 148.83203 224.3441Q149.28516 224.3441 149.6914 224.04723Q149.98828 223.82848 150.08203 223.50035Q150.14453 223.29723 150.14453 222.70348L150.14453 222.37535ZM159.1289 220.9691L157.51953 221.26598Q157.42578 220.7816 157.1289 220.54723Q156.84766 220.29723 156.39453 220.29723Q155.76953 220.29723 155.39453 220.7191Q155.03516 221.14098 155.03516 222.14098Q155.03516 223.25035 155.41016 223.70348Q155.78516 224.1566 156.41016 224.1566Q156.8789 224.1566 157.17578 223.89098Q157.47266 223.62535 157.59766 222.9691L159.22266 223.25035Q158.97266 224.35973 158.2539 224.93785Q157.53516 225.50035 156.33203 225.50035Q154.97266 225.50035 154.16016 224.64098Q153.34766 223.7816 153.34766 222.25035Q153.34766 220.7191 154.16016 219.85973Q154.97266 219.00035 156.36328 219.00035Q157.5039 219.00035 158.17578 219.48473Q158.84766 219.9691 159.1289 220.9691ZM166.1289 220.9691L164.51953 221.26598Q164.42578 220.7816 164.1289 220.54723Q163.84766 220.29723 163.39453 220.29723Q162.76953 220.29723 162.39453 220.7191Q162.03516 221.14098 162.03516 222.14098Q162.03516 223.25035 162.41016 223.70348Q162.78516 224.1566 163.41016 224.1566Q163.8789 224.1566 164.17578 223.89098Q164.47266 223.62535 164.59766 222.9691L166.22266 223.25035Q165.97266 224.35973 165.2539 224.93785Q164.53516 225.50035 163.33203 225.50035Q161.97266 225.50035 161.16016 224.64098Q160.34766 223.7816 160.34766 222.25035Q160.34766 220.7191 161.16016 219.85973Q161.97266 219.00035 163.36328 219.00035Q164.5039 219.00035 165.17578 219.48473Q165.84766 219.9691 166.1289 220.9691ZM169.34766 216.76598L169.34766 219.92223Q170.14453 219.00035 171.2539 219.00035Q171.8164 219.00035 172.26953 219.2191Q172.73828 219.42223 172.97266 219.75035Q173.20703 220.07848 173.28516 220.48473Q173.36328 220.87535 173.36328 221.70348L173.36328 225.35973L171.72266 225.35973L171.72266 222.07848Q171.72266 221.0941 171.6289 220.82848Q171.53516 220.56285 171.30078 220.4066Q171.0664 220.25035 170.70703 220.25035Q170.30078 220.25035 169.97266 220.45348Q169.64453 220.6566 169.48828 221.06285Q169.34766 221.45348 169.34766 222.23473L169.34766 225.35973L167.70703 225.35973L167.70703 216.76598L169.34766 216.76598ZM174.70703 218.29723L174.70703 216.76598L176.36328 216.76598L176.36328 218.29723L174.70703 218.29723ZM174.70703 225.35973L174.70703 219.14098L176.36328 219.14098L176.36328 225.35973L174.70703 225.35973ZM183.36328 225.35973L181.72266 225.35973L181.72266 222.18785Q181.72266 221.17223 181.61328 220.87535Q181.51953 220.57848 181.26953 220.42223Q181.03516 220.25035 180.70703 220.25035Q180.26953 220.25035 179.92578 220.48473Q179.59766 220.7191 179.47266 221.10973Q179.34766 221.50035 179.34766 222.54723L179.34766 225.35973L177.6914 225.35973L177.6914 219.14098L179.22266 219.14098L179.22266 220.04723Q180.03516 219.00035 181.28516 219.00035Q181.8164 219.00035 182.26953 219.20348Q182.72266 219.39098 182.95703 219.70348Q183.1914 220.00035 183.26953 220.39098Q183.36328 220.76598 183.36328 221.48473L183.36328 225.35973ZM185.9414 221.0316L184.4414 220.76598Q184.6914 219.85973 185.30078 219.43785Q185.92578 219.00035 187.14453 219.00035Q188.23828 219.00035 188.76953 219.26598Q189.3164 219.51598 189.53516 219.92223Q189.7539 220.31285 189.7539 221.39098L189.73828 223.31285Q189.73828 224.14098 189.8164 224.5316Q189.89453 224.9066 190.11328 225.35973L188.48828 225.35973Q188.42578 225.18785 188.33203 224.87535Q188.28516 224.7191 188.26953 224.67223Q187.84766 225.0941 187.36328 225.29723Q186.89453 225.50035 186.34766 225.50035Q185.3789 225.50035 184.8164 224.98473Q184.26953 224.45348 184.26953 223.6566Q184.26953 223.12535 184.51953 222.7191Q184.78516 222.31285 185.23828 222.0941Q185.6914 221.85973 186.55078 221.70348Q187.6914 221.48473 188.14453 221.29723L188.14453 221.14098Q188.14453 220.6566 187.91016 220.45348Q187.67578 220.25035 187.01953 220.25035Q186.58203 220.25035 186.33203 220.42223Q186.09766 220.5941 185.9414 221.0316ZM188.14453 222.37535Q187.83203 222.4691 187.14453 222.62535Q186.45703 222.76598 186.23828 222.9066Q185.92578 223.14098 185.92578 223.48473Q185.92578 223.82848 186.17578 224.0941Q186.4414 224.3441 186.83203 224.3441Q187.28516 224.3441 187.6914 224.04723Q187.98828 223.82848 188.08203 223.50035Q188.14453 223.29723 188.14453 222.70348L188.14453 222.37535ZM194.72266 216.76598L198.16016 216.76598Q199.17578 216.76598 199.67578 216.85973Q200.17578 216.93785 200.5664 217.2191Q200.97266 217.48473 201.23828 217.93785Q201.5039 218.37535 201.5039 218.93785Q201.5039 219.5316 201.17578 220.04723Q200.84766 220.54723 200.30078 220.79723Q201.08203 221.01598 201.5039 221.57848Q201.92578 222.12535 201.92578 222.87535Q201.92578 223.45348 201.64453 224.01598Q201.3789 224.56285 200.91016 224.89098Q200.4414 225.2191 199.73828 225.29723Q199.3164 225.3441 197.64453 225.35973L194.72266 225.35973L194.72266 216.76598ZM196.45703 218.20348L196.45703 220.18785L197.59766 220.18785Q198.61328 220.18785 198.86328 220.1566Q199.30078 220.10973 199.55078 219.85973Q199.8164 219.5941 199.8164 219.17223Q199.8164 218.7816 199.59766 218.5316Q199.3789 218.2816 198.9414 218.23473Q198.67578 218.20348 197.45703 218.20348L196.45703 218.20348ZM196.45703 221.60973L196.45703 223.9066L198.0664 223.9066Q199.0039 223.9066 199.2539 223.85973Q199.64453 223.7816 199.8789 223.51598Q200.1289 223.25035 200.1289 222.7816Q200.1289 222.4066 199.9414 222.14098Q199.7539 221.85973 199.39453 221.73473Q199.05078 221.60973 197.86328 221.60973L196.45703 221.60973Z" fill-rule="nonzero"/><path fill="#000000" d="M31.645313 192.26562Q31.645313 190.73438 31.957813 189.8125Q32.270313 188.875 32.87969 188.375Q33.50469 187.875 34.44219 187.875Q35.12969 187.875 35.645313 188.15625Q36.176563 188.4375 36.520313 188.96875Q36.864063 189.48438 37.051563 190.23438Q37.239063 190.98438 37.239063 192.26562Q37.239063 193.78125 36.926563 194.70312Q36.62969 195.625 36.00469 196.14062Q35.395313 196.64062 34.44219 196.64062Q33.207813 196.64062 32.489063 195.75Q31.645313 194.6875 31.645313 192.26562ZM32.72344 192.26562Q32.72344 194.375 33.22344 195.07812Q33.72344 195.78125 34.44219 195.78125Q35.176563 195.78125 35.66094 195.07812Q36.16094 194.375 36.16094 192.26562Q36.16094 190.14062 35.66094 189.45312Q35.176563 188.75 34.426563 188.75Q33.707813 188.75 33.270313 189.35938Q32.72344 190.14062 32.72344 192.26562Z" fill-rule="nonzero"/><path fill="#000000" d="M17.645313 159.24L18.754688 159.14626Q18.879688 159.95876 19.317188 160.365Q19.770313 160.77126 20.410938 160.77126Q21.160938 160.77126 21.692188 160.19313Q22.223438 159.615 22.223438 158.6775Q22.223438 157.77126 21.707813 157.25563Q21.207813 156.72438 20.379688 156.72438Q19.879688 156.72438 19.457813 156.95876Q19.051563 157.19313 18.817188 157.5525L17.832813 157.4275L18.660938 153.02126L22.942188 153.02126L22.942188 154.02126L19.504688 154.02126L19.051563 156.33376Q19.817188 155.78688 20.660938 155.78688Q21.785938 155.78688 22.551563 156.56813Q23.332813 157.34938 23.332813 158.58376Q23.332813 159.74 22.660938 160.59938Q21.832813 161.63063 20.410938 161.63063Q19.239063 161.63063 18.489063 160.97438Q17.754688 160.31813 17.645313 159.24ZM24.645313 157.25563Q24.645313 155.72438 24.957813 154.8025Q25.270313 153.865 25.879688 153.365Q26.504688 152.865 27.442188 152.865Q28.129688 152.865 28.645313 153.14626Q29.176563 153.4275 29.520313 153.95876Q29.864063 154.47438 30.051563 155.22438Q30.239063 155.97438 30.239063 157.25563Q30.239063 158.77126 29.926563 159.69313Q29.629688 160.615 29.004688 161.13063Q28.395313 161.63063 27.442188 161.63063Q26.207813 161.63063 25.489063 160.74Q24.645313 159.6775 24.645313 157.25563ZM25.723438 157.25563Q25.723438 159.365 26.223438 160.06813Q26.723438 160.77126 27.442188 160.77126Q28.176563 160.77126 28.660938 160.06813Q29.160938 159.365 29.160938 157.25563Q29.160938 155.13063 28.660938 154.44313Q28.176563 153.74 27.426563 153.74Q26.707813 153.74 26.270313 154.34938Q25.723438 155.13063 25.723438 157.25563ZM31.645313 157.25563Q31.645313 155.72438 31.957813 154.8025Q32.270313 153.865 32.87969 153.365Q33.50469 152.865 34.44219 152.865Q35.12969 152.865 35.645313 153.14626Q36.176563 153.4275 36.520313 153.95876Q36.864063 154.47438 37.051563 155.22438Q37.239063 155.97438 37.239063 157.25563Q37.239063 158.77126 36.926563 159.69313Q36.62969 160.615 36.00469 161.13063Q35.395313 161.63063 34.44219 161.63063Q33.207813 161.63063 32.489063 160.74Q31.645313 159.6775 31.645313 157.25563ZM32.72344 157.25563Q32.72344 159.365 33.22344 160.06813Q33.72344 160.77126 34.44219 160.77126Q35.176563 160.77126 35.66094 160.06813Q36.16094 159.365 36.16094 157.25563Q36.16094 155.13063 35.66094 154.44313Q35.176563 153.74 34.426563 153.74Q33.707813 153.74 33.270313 154.34938Q32.72344 155.13063 32.72344 157.25563Z" fill-rule="nonzero"/><path fill="#000000" d="M14.614062 126.48L13.567187 126.48L13.567187 119.76125Q13.176562 120.12063 12.551562 120.49563Q11.942187 120.855 11.457812 121.02688L11.457812 120.01125Q12.332812 119.58938 12.989062 119.01125Q13.660937 118.4175 13.942187 117.855L14.614062 117.855L14.614062 126.48ZM17.645313 122.24563Q17.645313 120.71438 17.957813 119.7925Q18.270313 118.855 18.879688 118.355Q19.504688 117.855 20.442188 117.855Q21.129688 117.855 21.645313 118.13625Q22.176563 118.4175 22.520313 118.94875Q22.864063 119.46438 23.051563 120.21438Q23.239063 120.96438 23.239063 122.24563Q23.239063 123.76125 22.926563 124.68313Q22.629688 125.605 22.004688 126.12063Q21.395313 126.62063 20.442188 126.62063Q19.207813 126.62063 18.489063 125.73Q17.645313 124.6675 17.645313 122.24563ZM18.723438 122.24563Q18.723438 124.355 19.223438 125.05813Q19.723438 125.76125 20.442188 125.76125Q21.176563 125.76125 21.660938 125.05813Q22.160938 124.355 22.160938 122.24563Q22.160938 120.12063 21.660938 119.43313Q21.176563 118.73 20.426563 118.73Q19.707813 118.73 19.270313 119.33938Q18.723438 120.12063 18.723438 122.24563ZM24.645313 122.24563Q24.645313 120.71438 24.957813 119.7925Q25.270313 118.855 25.879688 118.355Q26.504688 117.855 27.442188 117.855Q28.129688 117.855 28.645313 118.13625Q29.176563 118.4175 29.520313 118.94875Q29.864063 119.46438 30.051563 120.21438Q30.239063 120.96438 30.239063 122.24563Q30.239063 123.76125 29.926563 124.68313Q29.629688 125.605 29.004688 126.12063Q28.395313 126.62063 27.442188 126.62063Q26.207813 126.62063 25.489063 125.73Q24.645313 124.6675 24.645313 122.24563ZM25.723438 122.24563Q25.723438 124.355 26.223438 125.05813Q26.723438 125.76125 27.442188 125.76125Q28.176563 125.76125 28.660938 125.05813Q29.160938 124.355 29.160938 122.24563Q29.160938 120.12063 28.660938 119.43313Q28.176563 118.73 27.426563 118.73Q26.707813 118.73 26.270313 119.33938Q25.723438 120.12063 25.723438 122.24563ZM31.645313 122.24563Q31.645313 120.71438 31.957813 119.7925Q32.270313 118.855 32.87969 118.355Q33.50469 117.855 34.44219 117.855Q35.12969 117.855 35.645313 118.13625Q36.176563 118.4175 36.520313 118.94875Q36.864063 119.46438 37.051563 120.21438Q37.239063 120.96438 37.239063 122.24563Q37.239063 123.76125 36.926563 124.68313Q36.62969 125.605 36.00469 126.12063Q35.395313 126.62063 34.44219 126.62063Q33.207813 126.62063 32.489063 125.73Q31.645313 124.6675 31.645313 122.24563ZM32.72344 122.24563Q32.72344 124.355 33.22344 125.05813Q33.72344 125.76125 34.44219 125.76125Q35.176563 125.76125 35.66094 125.05813Q36.16094 124.355 36.16094 122.24563Q36.16094 120.12063 35.66094 119.43313Q35.176563 118.73 34.426563 118.73Q33.707813 118.73 33.270313 119.33938Q32.72344 120.12063 32.72344 122.24563Z" fill-rule="nonzero"/><path fill="#000000" d="M14.614062 91.47L13.567187 91.47L13.567187 84.75125Q13.176562 85.11063 12.551562 85.48563Q11.942187 85.845 11.457812 86.01688L11.457812 85.00125Q12.332812 84.57938 12.989062 84.00125Q13.660937 83.4075 13.942187 82.845L14.614062 82.845L14.614062 91.47ZM17.645313 89.22L18.754688 89.12625Q18.879688 89.93875 19.317188 90.345Q19.770313 90.75125 20.410938 90.75125Q21.160938 90.75125 21.692188 90.17313Q22.223438 89.595 22.223438 88.6575Q22.223438 87.75125 21.707813 87.23563Q21.207813 86.70438 20.379688 86.70438Q19.879688 86.70438 19.457813 86.93875Q19.051563 87.17313 18.817188 87.5325L17.832813 87.4075L18.660938 83.00125L22.942188 83.00125L22.942188 84.00125L19.504688 84.00125L19.051563 86.31375Q19.817188 85.76688 20.660938 85.76688Q21.785938 85.76688 22.551563 86.54813Q23.332813 87.32938 23.332813 88.56375Q23.332813 89.72 22.660938 90.57938Q21.832813 91.61063 20.410938 91.61063Q19.239063 91.61063 18.489063 90.95438Q17.754688 90.29813 17.645313 89.22ZM24.645313 87.23563Q24.645313 85.70438 24.957813 84.7825Q25.270313 83.845 25.879688 83.345Q26.504688 82.845 27.442188 82.845Q28.129688 82.845 28.645313 83.12625Q29.176563 83.4075 29.520313 83.93875Q29.864063 84.45438 30.051563 85.20438Q30.239063 85.95438 30.239063 87.23563Q30.239063 88.75125 29.926563 89.67313Q29.629688 90.595 29.004688 91.11063Q28.395313 91.61063 27.442188 91.61063Q26.207813 91.61063 25.489063 90.72Q24.645313 89.6575 24.645313 87.23563ZM25.723438 87.23563Q25.723438 89.345 26.223438 90.04813Q26.723438 90.75125 27.442188 90.75125Q28.176563 90.75125 28.660938 90.04813Q29.160938 89.345 29.160938 87.23563Q29.160938 85.11063 28.660938 84.42313Q28.176563 83.72 27.426563 83.72Q26.707813 83.72 26.270313 84.32938Q25.723438 85.11063 25.723438 87.23563ZM31.645313 87.23563Q31.645313 85.70438 31.957813 84.7825Q32.270313 83.845 32.87969 83.345Q33.50469 82.845 34.44219 82.845Q35.12969 82.845 35.645313 83.12625Q36.176563 83.4075 36.520313 83.93875Q36.864063 84.45438 37.051563 85.20438Q37.239063 85.95438 37.239063 87.23563Q37.239063 88.75125 36.926563 89.67313Q36.62969 90.595 36.00469 91.11063Q35.395313 91.61063 34.44219 91.61063Q33.207813 91.61063 32.489063 90.72Q31.645313 89.6575 31.645313 87.23563ZM32.72344 87.23563Q32.72344 89.345 33.22344 90.04813Q33.72344 90.75125 34.44219 90.75125Q35.176563 90.75125 35.66094 90.04813Q36.16094 89.345 36.16094 87.23563Q36.16094 85.11063 35.66094 84.42313Q35.176563 83.72 34.426563 83.72Q33.707813 83.72 33.270313 84.32938Q32.72344 85.11063 32.72344 87.23563Z" fill-rule="nonzero"/><path fill="#000000" d="M16.192188 55.444374L16.192188 56.46L10.504687 56.46Q10.504687 56.085 10.629687 55.725624Q10.848437 55.1475 11.317187 54.585Q11.801562 54.0225 12.707812 53.288124Q14.114062 52.131874 14.598437 51.46Q15.098437 50.788124 15.098437 50.194374Q15.098437 49.569374 14.645312 49.1475Q14.192187 48.71 13.473437 48.71Q12.707812 48.71 12.254687 49.163124Q11.801562 49.61625 11.785937 50.42875L10.707812 50.319374Q10.817187 49.100624 11.535937 48.475624Q12.270312 47.835 13.504687 47.835Q14.739062 47.835 15.457812 48.5225Q16.176563 49.21 16.176563 50.225624Q16.176563 50.74125 15.957812 51.24125Q15.754687 51.725624 15.254687 52.288124Q14.770312 52.835 13.645312 53.788124Q12.692187 54.585 12.410937 54.881874Q12.145312 55.163124 11.973437 55.444374L16.192188 55.444374ZM17.645313 52.225624Q17.645313 50.694374 17.957813 49.7725Q18.270313 48.835 18.879688 48.335Q19.504688 47.835 20.442188 47.835Q21.129688 47.835 21.645313 48.11625Q22.176563 48.3975 22.520313 48.92875Q22.864063 49.444374 23.051563 50.194374Q23.239063 50.944374 23.239063 52.225624Q23.239063 53.74125 22.926563 54.663124Q22.629688 55.585 22.004688 56.100624Q21.395313 56.600624 20.442188 56.600624Q19.207813 56.600624 18.489063 55.71Q17.645313 54.6475 17.645313 52.225624ZM18.723438 52.225624Q18.723438 54.335 19.223438 55.038124Q19.723438 55.74125 20.442188 55.74125Q21.176563 55.74125 21.660938 55.038124Q22.160938 54.335 22.160938 52.225624Q22.160938 50.100624 21.660938 49.413124Q21.176563 48.71 20.426563 48.71Q19.707813 48.71 19.270313 49.319374Q18.723438 50.100624 18.723438 52.225624ZM24.645313 52.225624Q24.645313 50.694374 24.957813 49.7725Q25.270313 48.835 25.879688 48.335Q26.504688 47.835 27.442188 47.835Q28.129688 47.835 28.645313 48.11625Q29.176563 48.3975 29.520313 48.92875Q29.864063 49.444374 30.051563 50.194374Q30.239063 50.944374 30.239063 52.225624Q30.239063 53.74125 29.926563 54.663124Q29.629688 55.585 29.004688 56.100624Q28.395313 56.600624 27.442188 56.600624Q26.207813 56.600624 25.489063 55.71Q24.645313 54.6475 24.645313 52.225624ZM25.723438 52.225624Q25.723438 54.335 26.223438 55.038124Q26.723438 55.74125 27.442188 55.74125Q28.176563 55.74125 28.660938 55.038124Q29.160938 54.335 29.160938 52.225624Q29.160938 50.100624 28.660938 49.413124Q28.176563 48.71 27.426563 48.71Q26.707813 48.71 26.270313 49.319374Q25.723438 50.100624 25.723438 52.225624ZM31.645313 52.225624Q31.645313 50.694374 31.957813 49.7725Q32.270313 48.835 32.87969 48.335Q33.50469 47.835 34.44219 47.835Q35.12969 47.835 35.645313 48.11625Q36.176563 48.3975 36.520313 48.92875Q36.864063 49.444374 37.051563 50.194374Q37.239063 50.944374 37.239063 52.225624Q37.239063 53.74125 36.926563 54.663124Q36.62969 55.585 36.00469 56.100624Q35.395313 56.600624 34.44219 56.600624Q33.207813 56.600624 32.489063 55.71Q31.645313 54.6475 31.645313 52.225624ZM32.72344 52.225624Q32.72344 54.335 33.22344 55.038124Q33.72344 55.74125 34.44219 55.74125Q35.176563 55.74125 35.66094 55.038124Q36.16094 54.335 36.16094 52.225624Q36.16094 50.100624 35.66094 49.413124Q35.176563 48.71 34.426563 48.71Q33.707813 48.71 33.270313 49.319374Q32.72344 50.100624 32.72344 52.225624Z" fill-rule="nonzero"/><path fill="#000000" d="M16.192188 20.434376L16.192188 21.45L10.504687 21.45Q10.504687 21.075 10.629687 20.715626Q10.848437 20.1375 11.317187 19.575Q11.801562 19.0125 12.707812 18.278126Q14.114062 17.121876 14.598437 16.45Q15.098437 15.778126 15.098437 15.184376Q15.098437 14.559376 14.645312 14.137501Q14.192187 13.700001 13.473437 13.700001Q12.707812 13.700001 12.254687 14.153126Q11.801562 14.606251 11.785937 15.418751L10.707812 15.309376Q10.817187 14.090626 11.535937 13.465626Q12.270312 12.825001 13.504687 12.825001Q14.739062 12.825001 15.457812 13.512501Q16.176563 14.200001 16.176563 15.215626Q16.176563 15.731251 15.957812 16.23125Q15.754687 16.715626 15.254687 17.278126Q14.770312 17.825 13.645312 18.778126Q12.692187 19.575 12.410937 19.871876Q12.145312 20.153126 11.973437 20.434376L16.192188 20.434376ZM17.645313 19.2L18.754688 19.10625Q18.879688 19.91875 19.317188 20.325Q19.770313 20.73125 20.410938 20.73125Q21.160938 20.73125 21.692188 20.153126Q22.223438 19.575 22.223438 18.6375Q22.223438 17.73125 21.707813 17.215626Q21.207813 16.684376 20.379688 16.684376Q19.879688 16.684376 19.457813 16.91875Q19.051563 17.153126 18.817188 17.5125L17.832813 17.3875L18.660938 12.981251L22.942188 12.981251L22.942188 13.981251L19.504688 13.981251L19.051563 16.29375Q19.817188 15.746876 20.660938 15.746876Q21.785938 15.746876 22.551563 16.528126Q23.332813 17.309376 23.332813 18.54375Q23.332813 19.7 22.660938 20.559376Q21.832813 21.590626 20.410938 21.590626Q19.239063 21.590626 18.489063 20.934376Q17.754688 20.278126 17.645313 19.2ZM24.645313 17.215626Q24.645313 15.684376 24.957813 14.762501Q25.270313 13.825001 25.879688 13.325001Q26.504688 12.825001 27.442188 12.825001Q28.129688 12.825001 28.645313 13.106251Q29.176563 13.387501 29.520313 13.918751Q29.864063 14.434376 30.051563 15.184376Q30.239063 15.934376 30.239063 17.215626Q30.239063 18.73125 29.926563 19.653126Q29.629688 20.575 29.004688 21.090626Q28.395313 21.590626 27.442188 21.590626Q26.207813 21.590626 25.489063 20.7Q24.645313 19.6375 24.645313 17.215626ZM25.723438 17.215626Q25.723438 19.325 26.223438 20.028126Q26.723438 20.73125 27.442188 20.73125Q28.176563 20.73125 28.660938 20.028126Q29.160938 19.325 29.160938 17.215626Q29.160938 15.090626 28.660938 14.403126Q28.176563 13.700001 27.426563 13.700001Q26.707813 13.700001 26.270313 14.309376Q25.723438 15.090626 25.723438 17.215626ZM31.645313 17.215626Q31.645313 15.684376 31.957813 14.762501Q32.270313 13.825001 32.87969 13.325001Q33.50469 12.825001 34.44219 12.825001Q35.12969 12.825001 35.645313 13.106251Q36.176563 13.387501 36.520313 13.918751Q36.864063 14.434376 37.051563 15.184376Q37.239063 15.934376 37.239063 17.215626Q37.239063 18.73125 36.926563 19.653126Q36.62969 20.575 36.00469 21.090626Q35.395313 21.590626 34.44219 21.590626Q33.207813 21.590626 32.489063 20.7Q31.645313 19.6375 31.645313 17.215626ZM32.72344 17.215626Q32.72344 19.325 33.22344 20.028126Q33.72344 20.73125 34.44219 20.73125Q35.176563 20.73125 35.66094 20.028126Q36.16094 19.325 36.16094 17.215626Q36.16094 15.090626 35.66094 14.403126Q35.176563 13.700001 34.426563 13.700001Q33.707813 13.700001 33.270313 14.309376Q32.72344 15.090626 32.72344 17.215626Z" fill-rule="nonzero"/><path fill="#000000" d="M81.20902 209.5L80.16215 209.5L80.16215 202.78125Q79.77152 203.14062 79.14652 203.51562Q78.53715 203.875 78.05277 204.04688L78.05277 203.03125Q78.92777 202.60938 79.58402 202.03125Q80.2559 201.4375 80.53715 200.875L81.20902 200.875L81.20902 209.5ZM84.24027 205.26562Q84.24027 203.73438 84.55277 202.8125Q84.86527 201.875 85.47465 201.375Q86.09965 200.875 87.03715 200.875Q87.72465 200.875 88.24027 201.15625Q88.77152 201.4375 89.11527 201.96875Q89.45902 202.48438 89.64652 203.23438Q89.83402 203.98438 89.83402 205.26562Q89.83402 206.78125 89.52152 207.70312Q89.22465 208.625 88.59965 209.14062Q87.99027 209.64062 87.03715 209.64062Q85.80277 209.64062 85.08402 208.75Q84.24027 207.6875 84.24027 205.26562ZM85.3184 205.26562Q85.3184 207.375 85.8184 208.07812Q86.3184 208.78125 87.03715 208.78125Q87.77152 208.78125 88.2559 208.07812Q88.7559 207.375 88.7559 205.26562Q88.7559 203.14062 88.2559 202.45312Q87.77152 201.75 87.02152 201.75Q86.30277 201.75 85.86527 202.35938Q85.3184 203.14062 85.3184 205.26562ZM91.24027 205.26562Q91.24027 203.73438 91.55277 202.8125Q91.86527 201.875 92.47465 201.375Q93.09965 200.875 94.03715 200.875Q94.72465 200.875 95.24027 201.15625Q95.77152 201.4375 96.11527 201.96875Q96.45902 202.48438 96.64652 203.23438Q96.83402 203.98438 96.83402 205.26562Q96.83402 206.78125 96.52152 207.70312Q96.22465 208.625 95.59965 209.14062Q94.99027 209.64062 94.03715 209.64062Q92.80277 209.64062 92.08402 208.75Q91.24027 207.6875 91.24027 205.26562ZM92.3184 205.26562Q92.3184 207.375 92.8184 208.07812Q93.3184 208.78125 94.03715 208.78125Q94.77152 208.78125 95.2559 208.07812Q95.7559 207.375 95.7559 205.26562Q95.7559 203.14062 95.2559 202.45312Q94.77152 201.75 94.02152 201.75Q93.30277 201.75 92.86527 202.35938Q92.3184 203.14062 92.3184 205.26562ZM98.24027 205.26562Q98.24027 203.73438 98.55277 202.8125Q98.86527 201.875 99.47465 201.375Q100.09965 200.875 101.03715 200.875Q101.72465 200.875 102.24027 201.15625Q102.77152 201.4375 103.11527 201.96875Q103.45902 202.48438 103.64652 203.23438Q103.83402 203.98438 103.83402 205.26562Q103.83402 206.78125 103.52152 207.70312Q103.22465 208.625 102.59965 209.14062Q101.99027 209.64062 101.03715 209.64062Q99.80277 209.64062 99.08402 208.75Q98.24027 207.6875 98.24027 205.26562ZM99.3184 205.26562Q99.3184 207.375 99.8184 208.07812Q100.3184 208.78125 101.03715 208.78125Q101.77152 208.78125 102.2559 208.07812Q102.7559 207.375 102.7559 205.26562Q102.7559 203.14062 102.2559 202.45312Q101.77152 201.75 101.02152 201.75Q100.30277 201.75 99.86527 202.35938Q99.3184 203.14062 99.3184 205.26562ZM105.24027 205.26562Q105.24027 203.73438 105.55277 202.8125Q105.86527 201.875 106.47465 201.375Q107.09965 200.875 108.03715 200.875Q108.72465 200.875 109.24027 201.15625Q109.77152 201.4375 110.11527 201.96875Q110.45902 202.48438 110.64652 203.23438Q110.83402 203.98438 110.83402 205.26562Q110.83402 206.78125 110.52152 207.70312Q110.22465 208.625 109.59965 209.14062Q108.99027 209.64062 108.03715 209.64062Q106.80277 209.64062 106.08402 208.75Q105.24027 207.6875 105.24027 205.26562ZM106.3184 205.26562Q106.3184 207.375 106.8184 208.07812Q107.3184 208.78125 108.03715 208.78125Q108.77152 208.78125 109.2559 208.07812Q109.7559 207.375 109.7559 205.26562Q109.7559 203.14062 109.2559 202.45312Q108.77152 201.75 108.02152 201.75Q107.30277 201.75 106.86527 202.35938Q106.3184 203.14062 106.3184 205.26562Z" fill-rule="nonzero"/><path fill="#000000" d="M155.42378 209.5L154.3769 209.5L154.3769 202.78125Q153.98628 203.14062 153.36128 203.51562Q152.7519 203.875 152.26753 204.04688L152.26753 203.03125Q153.14253 202.60938 153.79878 202.03125Q154.47066 201.4375 154.7519 200.875L155.42378 200.875L155.42378 209.5ZM158.45503 205.26562Q158.45503 203.73438 158.76753 202.8125Q159.08003 201.875 159.6894 201.375Q160.3144 200.875 161.2519 200.875Q161.9394 200.875 162.45503 201.15625Q162.98628 201.4375 163.33003 201.96875Q163.67378 202.48438 163.86128 203.23438Q164.04878 203.98438 164.04878 205.26562Q164.04878 206.78125 163.73628 207.70312Q163.4394 208.625 162.8144 209.14062Q162.20503 209.64062 161.2519 209.64062Q160.01753 209.64062 159.29878 208.75Q158.45503 207.6875 158.45503 205.26562ZM159.53316 205.26562Q159.53316 207.375 160.03316 208.07812Q160.53316 208.78125 161.2519 208.78125Q161.98628 208.78125 162.47066 208.07812Q162.97066 207.375 162.97066 205.26562Q162.97066 203.14062 162.47066 202.45312Q161.98628 201.75 161.23628 201.75Q160.51753 201.75 160.08003 202.35938Q159.53316 203.14062 159.53316 205.26562ZM165.45503 205.26562Q165.45503 203.73438 165.76753 202.8125Q166.08003 201.875 166.6894 201.375Q167.3144 200.875 168.2519 200.875Q168.9394 200.875 169.45503 201.15625Q169.98628 201.4375 170.33003 201.96875Q170.67378 202.48438 170.86128 203.23438Q171.04878 203.98438 171.04878 205.26562Q171.04878 206.78125 170.73628 207.70312Q170.4394 208.625 169.8144 209.14062Q169.20503 209.64062 168.2519 209.64062Q167.01753 209.64062 166.29878 208.75Q165.45503 207.6875 165.45503 205.26562ZM166.53316 205.26562Q166.53316 207.375 167.03316 208.07812Q167.53316 208.78125 168.2519 208.78125Q168.98628 208.78125 169.47066 208.07812Q169.97066 207.375 169.97066 205.26562Q169.97066 203.14062 169.47066 202.45312Q168.98628 201.75 168.23628 201.75Q167.51753 201.75 167.08003 202.35938Q166.53316 203.14062 166.53316 205.26562ZM172.45503 205.26562Q172.45503 203.73438 172.76753 202.8125Q173.08003 201.875 173.6894 201.375Q174.3144 200.875 175.2519 200.875Q175.9394 200.875 176.45503 201.15625Q176.98628 201.4375 177.33003 201.96875Q177.67378 202.48438 177.86128 203.23438Q178.04878 203.98438 178.04878 205.26562Q178.04878 206.78125 177.73628 207.70312Q177.4394 208.625 176.8144 209.14062Q176.20503 209.64062 175.2519 209.64062Q174.01753 209.64062 173.29878 208.75Q172.45503 207.6875 172.45503 205.26562ZM173.53316 205.26562Q173.53316 207.375 174.03316 208.07812Q174.53316 208.78125 175.2519 208.78125Q175.98628 208.78125 176.47066 208.07812Q176.97066 207.375 176.97066 205.26562Q176.97066 203.14062 176.47066 202.45312Q175.98628 201.75 175.23628 201.75Q174.51753 201.75 174.08003 202.35938Q173.53316 203.14062 173.53316 205.26562ZM179.45503 205.26562Q179.45503 203.73438 179.76753 202.8125Q180.08003 201.875 180.6894 201.375Q181.3144 200.875 182.2519 200.875Q182.9394 200.875 183.45503 201.15625Q183.98628 201.4375 184.33003 201.96875Q184.67378 202.48438 184.86128 203.23438Q185.04878 203.98438 185.04878 205.26562Q185.04878 206.78125 184.73628 207.70312Q184.4394 208.625 183.8144 209.14062Q183.20503 209.64062 182.2519 209.64062Q181.01753 209.64062 180.29878 208.75Q179.45503 207.6875 179.45503 205.26562ZM180.53316 205.26562Q180.53316 207.375 181.03316 208.07812Q181.53316 208.78125 182.2519 208.78125Q182.98628 208.78125 183.47066 208.07812Q183.97066 207.375 183.97066 205.26562Q183.97066 203.14062 183.47066 202.45312Q182.98628 201.75 182.23628 201.75Q181.51753 201.75 181.08003 202.35938Q180.53316 203.14062 180.53316 205.26562Z" fill-rule="nonzero"/></svg>