<svg version="1.1" viewBox="0.0 0.0 230.0 229.0" fill="none" stroke="none" stroke-linecap="square" stroke-miterlimit="10" width="230" height="229" xmlns:xlink="http://www.w3.org/1999/xlink" xmlns="http://www.w3.org/2000/svg"><path fill="#ffffff" d="M0 0L230.0 0L230.0 229.0L0 229.0L0 0Z" fill-rule="nonzero"/><path stroke="#333333" stroke-width="1.0" stroke-linecap="butt" d="M52.5 192.5L218.5 192.5" fill-rule="nonzero"/><path stroke="#cccccc" stroke-width="1.0" stroke-linecap="butt" d="M52.5 157.5L218.5 157.5" fill-rule="nonzero"/><path stroke="#cccccc" stroke-width="1.0" stroke-linecap="butt" d="M52.5 122.5L218.5 122.5" fill-rule="nonzero"/><path stroke="#cccccc" stroke-width="1.0" stroke-linecap="butt" d="M52.5 87.5L218.5 87.5" fill-rule="nonzero"/><path stroke="#cccccc" stroke-width="1.0" stroke-linecap="butt" d="M52.5 52.5L218.5 52.5" fill-rule="nonzero"/><path stroke="#cccccc" stroke-width="1.0" stroke-linecap="butt" d="M52.5 16.5L218.5 16.5" fill-rule="nonzero"/><clipPath id="id_0"><path d="M52.846584 16.95L218.5 16.95L218.5 192.5L52.846584 192.5L52.846584 16.95Z" clip-rule="nonzero"/></clipPath><path stroke="#4285f4" stroke-width="2.0" stroke-linecap="butt" clip-path="url(#id_0)" d="M100.42789 38.750713L100.42789 60.679085" fill-rule="nonzero"/><path stroke="#4285f4" stroke-width="2.0" stroke-linecap="butt" clip-path="url(#id_0)" d="M100.42789 60.679085L100.42789 38.750713" fill-rule="nonzero"/><path fill="#4285f4" clip-path="url(#id_0)" d="M76.51837 37.750713L124.3374 37.750713L124.3374 61.679085L76.51837 61.679085L76.51837 37.750713Z" fill-rule="nonzero"/><path stroke="#4285f4" stroke-width="2.0" stroke-linecap="butt" clip-path="url(#id_0)" d="M170.9187 45.767796L170.9187 57.305153" fill-rule="nonzero"/><path stroke="#4285f4" stroke-width="2.0" stroke-linecap="butt" clip-path="url(#id_0)" d="M170.9187 57.305153L170.9187 45.767796" fill-rule="nonzero"/><path fill="#4285f4" clip-path="url(#id_0)" d="M147.00919 44.767796L194.82822 44.767796L194.82822 58.305153L147.00919 58.305153L147.00919 44.767796Z" fill-rule="nonzero"/><path fill="#000000" d="M66.017044 225.35973L66.017044 216.76598L68.62642 216.76598L70.173294 222.62535L71.72017 216.76598L74.31392 216.76598L74.31392 225.35973L72.704544 225.35973L72.704544 218.5941L71.00142 225.35973L69.329544 225.35973L67.642044 218.5941L67.642044 225.35973L66.017044 225.35973ZM77.267044 221.0316L75.767044 220.76598Q76.017044 219.85973 76.62642 219.43785Q77.25142 219.00035 78.47017 219.00035Q79.56392 219.00035 80.09517 219.26598Q80.642044 219.51598 80.860794 219.92223Q81.079544 220.31285 81.079544 221.39098L81.06392 223.31285Q81.06392 224.14098 81.142044 224.5316Q81.22017 224.9066 81.43892 225.35973L79.81392 225.35973Q79.75142 225.18785 79.65767 224.87535Q79.610794 224.7191 79.59517 224.67223Q79.173294 225.0941 78.68892 225.29723Q78.22017 225.50035 77.673294 225.50035Q76.704544 225.50035 76.142044 224.98473Q75.59517 224.45348 75.59517 223.6566Q75.59517 223.12535 75.84517 222.7191Q76.110794 222.31285 76.56392 222.0941Q77.017044 221.85973 77.87642 221.70348Q79.017044 221.48473 79.47017 221.29723L79.47017 221.14098Q79.47017 220.6566 79.235794 220.45348Q79.00142 220.25035 78.34517 220.25035Q77.90767 220.25035 77.65767 220.42223Q77.423294 220.5941 77.267044 221.0316ZM79.47017 222.37535Q79.15767 222.4691 78.47017 222.62535Q77.78267 222.76598 77.56392 222.9066Q77.25142 223.14098 77.25142 223.48473Q77.25142 223.82848 77.50142 224.0941Q77.767044 224.3441 78.15767 224.3441Q78.610794 224.3441 79.017044 224.04723Q79.31392 223.82848 79.40767 223.50035Q79.47017 223.29723 79.47017 222.70348L79.47017 222.37535ZM88.454544 220.9691L86.84517 221.26598Q86.75142 220.7816 86.454544 220.54723Q86.173294 220.29723 85.72017 220.29723Q85.09517 220.29723 84.72017 220.7191Q84.360794 221.14098 84.360794 222.14098Q84.360794 223.25035 84.735794 223.70348Q85.110794 224.1566 85.735794 224.1566Q86.204544 224.1566 86.50142 223.89098Q86.798294 223.62535 86.923294 222.9691L88.548294 223.25035Q88.298294 224.35973 87.579544 224.93785Q86.860794 225.50035 85.65767 225.50035Q84.298294 225.50035 83.485794 224.64098Q82.673294 223.7816 82.673294 222.25035Q82.673294 220.7191 83.485794 219.85973Q84.298294 219.00035 85.68892 219.00035Q86.829544 219.00035 87.50142 219.48473Q88.173294 219.9691 88.454544 220.9691ZM95.454544 220.9691L93.84517 221.26598Q93.75142 220.7816 93.454544 220.54723Q93.173294 220.29723 92.72017 220.29723Q92.09517 220.29723 91.72017 220.7191Q91.360794 221.14098 91.360794 222.14098Q91.360794 223.25035 91.735794 223.70348Q92.110794 224.1566 92.735794 224.1566Q93.204544 224.1566 93.50142 223.89098Q93.798294 223.62535 93.923294 222.9691L95.548294 223.25035Q95.298294 224.35973 94.579544 224.93785Q93.860794 225.50035 92.65767 225.50035Q91.298294 225.50035 90.485794 224.64098Q89.673294 223.7816 89.673294 222.25035Q89.673294 220.7191 90.485794 219.85973Q91.298294 219.00035 92.68892 219.00035Q93.829544 219.00035 94.50142 219.48473Q95.173294 219.9691 95.454544 220.9691ZM98.673294 216.76598L98.673294 219.92223Q99.47017 219.00035 100.579544 219.00035Q101.142044 219.00035 101.59517 219.2191Q102.06392 219.42223 102.298294 219.75035Q102.53267 220.07848 102.610794 220.48473Q102.68892 220.87535 102.68892 221.70348L102.68892 225.35973L101.048294 225.35973L101.048294 222.07848Q101.048294 221.0941 100.954544 220.82848Q100.860794 220.56285 100.62642 220.4066Q100.392044 220.25035 100.03267 220.25035Q99.62642 220.25035 99.298294 220.45348Q98.97017 220.6566 98.81392 221.06285Q98.673294 221.45348 98.673294 222.23473L98.673294 225.35973L97.03267 225.35973L97.03267 216.76598L98.673294 216.76598ZM104.03267 218.29723L104.03267 216.76598L105.68892 216.76598L105.68892 218.29723L104.03267 218.29723ZM104.03267 225.35973L104.03267 219.14098L105.68892 219.14098L105.68892 225.35973L104.03267 225.35973ZM112.68892 225.35973L111.048294 225.35973L111.048294 222.18785Q111.048294 221.17223 110.93892 220.87535Q110.84517 220.57848 110.59517 220.42223Q110.360794 220.25035 110.03267 220.25035Q109.59517 220.25035 109.25142 220.48473Q108.923294 220.7191 108.798294 221.10973Q108.673294 221.50035 108.673294 222.54723L108.673294 225.35973L107.017044 225.35973L107.017044 219.14098L108.548294 219.14098L108.548294 220.04723Q109.360794 219.00035 110.610794 219.00035Q111.142044 219.00035 111.59517 219.20348Q112.048294 219.39098 112.28267 219.70348Q112.517044 220.00035 112.59517 220.39098Q112.68892 220.76598 112.68892 221.48473L112.68892 225.35973ZM115.267044 221.0316L113.767044 220.76598Q114.017044 219.85973 114.62642 219.43785Q115.25142 219.00035 116.47017 219.00035Q117.56392 219.00035 118.09517 219.26598Q118.642044 219.51598 118.860794 219.92223Q119.079544 220.31285 119.079544 221.39098L119.06392 223.31285Q119.06392 224.14098 119.142044 224.5316Q119.22017 224.9066 119.43892 225.35973L117.81392 225.35973Q117.75142 225.18785 117.65767 224.87535Q117.610794 224.7191 117.59517 224.67223Q117.173294 225.0941 116.68892 225.29723Q116.22017 225.50035 115.673294 225.50035Q114.704544 225.50035 114.142044 224.98473Q113.59517 224.45348 113.59517 223.6566Q113.59517 223.12535 113.84517 222.7191Q114.110794 222.31285 114.56392 222.0941Q115.017044 221.85973 115.87642 221.70348Q117.017044 221.48473 117.47017 221.29723L117.47017 221.14098Q117.47017 220.6566 117.235794 220.45348Q117.00142 220.25035 116.34517 220.25035Q115.90767 220.25035 115.65767 220.42223Q115.423294 220.5941 115.267044 221.0316ZM117.47017 222.37535Q117.15767 222.4691 116.47017 222.62535Q115.78267 222.76598 115.56392 222.9066Q115.25142 223.14098 115.25142 223.48473Q115.25142 223.82848 115.50142 224.0941Q115.767044 224.3441 116.15767 224.3441Q116.610794 224.3441 117.017044 224.04723Q117.31392 223.82848 117.40767 223.50035Q117.47017 223.29723 117.47017 222.70348L117.47017 222.37535ZM131.7983 225.35973L129.90767 225.35973L129.15767 223.4066L125.72017 223.4066L125.017044 225.35973L123.173294 225.35973L126.517044 216.76598L128.3608 216.76598L131.7983 225.35973ZM128.59517 221.95348L127.423294 218.76598L126.25142 221.95348L128.59517 221.95348ZM141.01704 225.35973L141.01704 216.76598L143.62642 216.76598L145.1733 222.62535L146.72017 216.76598L149.31392 216.76598L149.31392 225.35973L147.70454 225.35973L147.70454 218.5941L146.00142 225.35973L144.32954 225.35973L142.64204 218.5941L142.64204 225.35973L141.01704 225.35973ZM152.26704 221.0316L150.76704 220.76598Q151.01704 219.85973 151.62642 219.43785Q152.25142 219.00035 153.47017 219.00035Q154.56392 219.00035 155.09517 219.26598Q155.64204 219.51598 155.8608 219.92223Q156.07954 220.31285 156.07954 221.39098L156.06392 223.31285Q156.06392 224.14098 156.14204 224.5316Q156.22017 224.9066 156.43892 225.35973L154.81392 225.35973Q154.75142 225.18785 154.65767 224.87535Q154.6108 224.7191 154.59517 224.67223Q154.1733 225.0941 153.68892 225.29723Q153.22017 225.50035 152.6733 225.50035Q151.70454 225.50035 151.14204 224.98473Q150.59517 224.45348 150.59517 223.6566Q150.59517 223.12535 150.84517 222.7191Q151.1108 222.31285 151.56392 222.0941Q152.01704 221.85973 152.87642 221.70348Q154.01704 221.48473 154.47017 221.29723L154.47017 221.14098Q154.47017 220.6566 154.2358 220.45348Q154.00142 220.25035 153.34517 220.25035Q152.90767 220.25035 152.65767 220.42223Q152.4233 220.5941 152.26704 221.0316ZM154.47017 222.37535Q154.15767 222.4691 153.47017 222.62535Q152.78267 222.76598 152.56392 222.9066Q152.25142 223.14098 152.25142 223.48473Q152.25142 223.82848 152.50142 224.0941Q152.76704 224.3441 153.15767 224.3441Q153.6108 224.3441 154.01704 224.04723Q154.31392 223.82848 154.40767 223.50035Q154.47017 223.29723 154.47017 222.70348L154.47017 222.37535ZM163.45454 220.9691L161.84517 221.26598Q161.75142 220.7816 161.45454 220.54723Q161.1733 220.29723 160.72017 220.29723Q160.09517 220.29723 159.72017 220.7191Q159.3608 221.14098 159.3608 222.14098Q159.3608 223.25035 159.7358 223.70348Q160.1108 224.1566 160.7358 224.1566Q161.20454 224.1566 161.50142 223.89098Q161.7983 223.62535 161.9233 222.9691L163.5483 223.25035Q163.2983 224.35973 162.57954 224.93785Q161.8608 225.50035 160.65767 225.50035Q159.2983 225.50035 158.4858 224.64098Q157.6733 223.7816 157.6733 222.25035Q157.6733 220.7191 158.4858 219.85973Q159.2983 219.00035 160.68892 219.00035Q161.82954 219.00035 162.50142 219.48473Q163.1733 219.9691 163.45454 220.9691ZM170.45454 220.9691L168.84517 221.26598Q168.75142 220.7816 168.45454 220.54723Q168.1733 220.29723 167.72017 220.29723Q167.09517 220.29723 166.72017 220.7191Q166.3608 221.14098 166.3608 222.14098Q166.3608 223.25035 166.7358 223.70348Q167.1108 224.1566 167.7358 224.1566Q168.20454 224.1566 168.50142 223.89098Q168.7983 223.62535 168.9233 222.9691L170.5483 223.25035Q170.2983 224.35973 169.57954 224.93785Q168.8608 225.50035 167.65767 225.50035Q166.2983 225.50035 165.4858 224.64098Q164.6733 223.7816 164.6733 222.25035Q164.6733 220.7191 165.4858 219.85973Q166.2983 219.00035 167.68892 219.00035Q168.82954 219.00035 169.50142 219.48473Q170.1733 219.9691 170.45454 220.9691ZM173.6733 216.76598L173.6733 219.92223Q174.47017 219.00035 175.57954 219.00035Q176.14204 219.00035 176.59517 219.2191Q177.06392 219.42223 177.2983 219.75035Q177.53267 220.07848 177.6108 220.48473Q177.68892 220.87535 177.68892 221.70348L177.68892 225.35973L176.0483 225.35973L176.0483 222.07848Q176.0483 221.0941 175.95454 220.82848Q175.8608 220.56285 175.62642 220.4066Q175.39204 220.25035 175.03267 220.25035Q174.62642 220.25035 174.2983 220.45348Q173.97017 220.6566 173.81392 221.06285Q173.6733 221.45348 173.6733 222.23473L173.6733 225.35973L172.03267 225.35973L172.03267 216.76598L173.6733 216.76598ZM179.03267 218.29723L179.03267 216.76598L180.68892 216.76598L180.68892 218.29723L179.03267 218.29723ZM179.03267 225.35973L179.03267 219.14098L180.68892 219.14098L180.68892 225.35973L179.03267 225.35973ZM187.68892 225.35973L186.0483 225.35973L186.0483 222.18785Q186.0483 221.17223 185.93892 220.87535Q185.84517 220.57848 185.59517 220.42223Q185.3608 220.25035 185.03267 220.25035Q184.59517 220.25035 184.25142 220.48473Q183.9233 220.7191 183.7983 221.10973Q183.6733 221.50035 183.6733 222.54723L183.6733 225.35973L182.01704 225.35973L182.01704 219.14098L183.5483 219.14098L183.5483 220.04723Q184.3608 219.00035 185.6108 219.00035Q186.14204 219.00035 186.59517 219.20348Q187.0483 219.39098 187.28267 219.70348Q187.51704 220.00035 187.59517 220.39098Q187.68892 220.76598 187.68892 221.48473L187.68892 225.35973ZM190.26704 221.0316L188.76704 220.76598Q189.01704 219.85973 189.62642 219.43785Q190.25142 219.00035 191.47017 219.00035Q192.56392 219.00035 193.09517 219.26598Q193.64204 219.51598 193.8608 219.92223Q194.07954 220.31285 194.07954 221.39098L194.06392 223.31285Q194.06392 224.14098 194.14204 224.5316Q194.22017 224.9066 194.43892 225.35973L192.81392 225.35973Q192.75142 225.18785 192.65767 224.87535Q192.6108 224.7191 192.59517 224.67223Q192.1733 225.0941 191.68892 225.29723Q191.22017 225.50035 190.6733 225.50035Q189.70454 225.50035 189.14204 224.98473Q188.59517 224.45348 188.59517 223.6566Q188.59517 223.12535 188.84517 222.7191Q189.1108 222.31285 189.56392 222.0941Q190.01704 221.85973 190.87642 221.70348Q192.01704 221.48473 192.47017 221.29723L192.47017 221.14098Q192.47017 220.6566 192.2358 220.45348Q192.00142 220.25035 191.34517 220.25035Q190.90767 220.25035 190.65767 220.42223Q190.4233 220.5941 190.26704 221.0316ZM192.47017 222.37535Q192.15767 222.4691 191.47017 222.62535Q190.78267 222.76598 190.56392 222.9066Q190.25142 223.14098 190.25142 223.48473Q190.25142 223.82848 190.50142 224.0941Q190.76704 224.3441 191.15767 224.3441Q191.6108 224.3441 192.01704 224.04723Q192.31392 223.82848 192.40767 223.50035Q192.47017 223.29723 192.47017 222.70348L192.47017 222.37535ZM199.0483 216.76598L202.4858 216.76598Q203.50142 216.76598 204.00142 216.85973Q204.50142 216.93785 204.89204 217.2191Q205.2983 217.48473 205.56392 217.93785Q205.82954 218.37535 205.82954 218.93785Q205.82954 219.5316 205.50142 220.04723Q205.1733 220.54723 204.62642 220.79723Q205.40767 221.01598 205.82954 221.57848Q206.25142 222.12535 206.25142 222.87535Q206.25142 223.45348 205.97017 224.01598Q205.70454 224.56285 205.2358 224.89098Q204.76704 225.2191 204.06392 225.29723Q203.64204 225.3441 201.97017 225.35973L199.0483 225.35973L199.0483 216.76598ZM200.78267 218.20348L200.78267 220.18785L201.9233 220.18785Q202.93892 220.18785 203.18892 220.1566Q203.62642 220.10973 203.87642 219.85973Q204.14204 219.5941 204.14204 219.17223Q204.14204 218.7816 203.9233 218.5316Q203.70454 218.2816 203.26704 218.23473Q203.00142 218.20348 201.78267 218.20348L200.78267 218.20348ZM200.78267 221.60973L200.78267 223.9066L202.39204 223.9066Q203.32954 223.9066 203.57954 223.85973Q203.97017 223.7816 204.20454 223.51598Q204.45454 223.25035 204.45454 222.7816Q204.45454 222.4066 204.26704 222.14098Q204.07954 221.85973 203.72017 221.73473Q203.37642 221.60973 202.18892 221.60973L200.78267 221.60973Z" fill-rule="nonzero"/><path fill="#000000" d="M40.346584 192.26562Q40.346584 190.73438 40.659084 189.8125Q40.971584 188.875 41.58096 188.375Q42.20596 187.875 43.14346 187.875Q43.83096 187.875 44.346584 188.15625Q44.877834 188.4375 45.221584 188.96875Q45.565334 189.48438 45.752834 190.23438Q45.940334 190.98438 45.940334 192.26562Q45.940334 193.78125 45.627834 194.70312Q45.33096 195.625 44.70596 196.14062Q44.096584 196.64062 43.14346 196.64062Q41.909084 196.64062 41.190334 195.75Q40.346584 194.6875 40.346584 192.26562ZM41.42471 192.26562Q41.42471 194.375 41.92471 195.07812Q42.42471 195.78125 43.14346 195.78125Q43.877834 195.78125 44.36221 195.07812Q44.86221 194.375 44.86221 192.26562Q44.86221 190.14062 44.36221 189.45312Q43.877834 188.75 43.127834 188.75Q42.409084 188.75 41.971584 189.35938Q41.42471 190.14062 41.42471 192.26562Z" fill-rule="nonzero"/><path fill="#000000" d="M19.346586 159.14L20.455961 159.04625Q20.580961 159.85875 21.018461 160.265Q21.471586 160.67125 22.112211 160.67125Q22.862211 160.67125 23.393461 160.09312Q23.924711 159.515 23.924711 158.5775Q23.924711 157.67125 23.409086 157.15562Q22.909086 156.62437 22.080961 156.62437Q21.580961 156.62437 21.159086 156.85875Q20.752836 157.09312 20.518461 157.4525L19.534086 157.3275L20.362211 152.92125L24.643461 152.92125L24.643461 153.92125L21.205961 153.92125L20.752836 156.23375Q21.518461 155.68687 22.362211 155.68687Q23.487211 155.68687 24.252836 156.46812Q25.034086 157.24937 25.034086 158.48375Q25.034086 159.64 24.362211 160.49937Q23.534086 161.53062 22.112211 161.53062Q20.940336 161.53062 20.190336 160.87437Q19.455961 160.21812 19.346586 159.14ZM26.346586 157.15562Q26.346586 155.62437 26.659086 154.7025Q26.971586 153.765 27.580961 153.265Q28.205961 152.765 29.143461 152.765Q29.830961 152.765 30.346586 153.04625Q30.877836 153.3275 31.221586 153.85875Q31.565336 154.37437 31.752836 155.12437Q31.940336 155.87437 31.940336 157.15562Q31.940336 158.67125 31.627836 159.59312Q31.330961 160.515 30.705961 161.03062Q30.096586 161.53062 29.143461 161.53062Q27.909086 161.53062 27.190336 160.64Q26.346586 159.5775 26.346586 157.15562ZM27.424711 157.15562Q27.424711 159.265 27.924711 159.96812Q28.424711 160.67125 29.143461 160.67125Q29.877836 160.67125 30.362211 159.96812Q30.862211 159.265 30.862211 157.15562Q30.862211 155.03062 30.362211 154.34312Q29.877836 153.64 29.127836 153.64Q28.409086 153.64 27.971586 154.24937Q27.424711 155.03062 27.424711 157.15562ZM33.34659 157.15562Q33.34659 155.62437 33.65909 154.7025Q33.97159 153.765 34.580963 153.265Q35.205963 152.765 36.143463 152.765Q36.830963 152.765 37.34659 153.04625Q37.87784 153.3275 38.22159 153.85875Q38.56534 154.37437 38.75284 155.12437Q38.94034 155.87437 38.94034 157.15562Q38.94034 158.67125 38.62784 159.59312Q38.330963 160.515 37.705963 161.03062Q37.09659 161.53062 36.143463 161.53062Q34.90909 161.53062 34.19034 160.64Q33.34659 159.5775 33.34659 157.15562ZM34.424713 157.15562Q34.424713 159.265 34.924713 159.96812Q35.424713 160.67125 36.143463 160.67125Q36.87784 160.67125 37.362213 159.96812Q37.862213 159.265 37.862213 157.15562Q37.862213 155.03062 37.362213 154.34312Q36.87784 153.64 36.12784 153.64Q35.40909 153.64 34.97159 154.24937Q34.424713 155.03062 34.424713 157.15562ZM40.34659 157.15562Q40.34659 155.62437 40.65909 154.7025Q40.97159 153.765 41.580963 153.265Q42.205963 152.765 43.143463 152.765Q43.830963 152.765 44.34659 153.04625Q44.87784 153.3275 45.22159 153.85875Q45.56534 154.37437 45.75284 155.12437Q45.94034 155.87437 45.94034 157.15562Q45.94034 158.67125 45.62784 159.59312Q45.330963 160.515 44.705963 161.03062Q44.09659 161.53062 43.143463 161.53062Q41.90909 161.53062 41.19034 160.64Q40.34659 159.5775 40.34659 157.15562ZM41.424713 157.15562Q41.424713 159.265 41.924713 159.96812Q42.424713 160.67125 43.143463 160.67125Q43.87784 160.67125 44.362213 159.96812Q44.862213 159.265 44.862213 157.15562Q44.862213 155.03062 44.362213 154.34312Q43.87784 153.64 43.12784 153.64Q42.40909 153.64 41.97159 154.24937Q41.424713 155.03062 41.424713 157.15562Z" fill-rule="nonzero"/><path fill="#000000" d="M16.315336 126.28L15.268461 126.28L15.268461 119.56125Q14.877836 119.92062 14.252836 120.29562Q13.643461 120.655 13.159086 120.82687L13.159086 119.81125Q14.034086 119.38937 14.690336 118.81125Q15.362211 118.2175 15.643461 117.655L16.315336 117.655L16.315336 126.28ZM19.346586 122.04562Q19.346586 120.51437 19.659086 119.5925Q19.971586 118.655 20.580961 118.155Q21.205961 117.655 22.143461 117.655Q22.830961 117.655 23.346586 117.93625Q23.877836 118.2175 24.221586 118.74875Q24.565336 119.26437 24.752836 120.01437Q24.940336 120.76437 24.940336 122.04562Q24.940336 123.56125 24.627836 124.48312Q24.330961 125.405 23.705961 125.92062Q23.096586 126.42062 22.143461 126.42062Q20.909086 126.42062 20.190336 125.53Q19.346586 124.4675 19.346586 122.04562ZM20.424711 122.04562Q20.424711 124.155 20.924711 124.85812Q21.424711 125.56125 22.143461 125.56125Q22.877836 125.56125 23.362211 124.85812Q23.862211 124.155 23.862211 122.04562Q23.862211 119.92062 23.362211 119.23312Q22.877836 118.53 22.127836 118.53Q21.409086 118.53 20.971586 119.13937Q20.424711 119.92062 20.424711 122.04562ZM26.346586 122.04562Q26.346586 120.51437 26.659086 119.5925Q26.971586 118.655 27.580961 118.155Q28.205961 117.655 29.143461 117.655Q29.830961 117.655 30.346586 117.93625Q30.877836 118.2175 31.221586 118.74875Q31.565336 119.26437 31.752836 120.01437Q31.940336 120.76437 31.940336 122.04562Q31.940336 123.56125 31.627836 124.48312Q31.330961 125.405 30.705961 125.92062Q30.096586 126.42062 29.143461 126.42062Q27.909086 126.42062 27.190336 125.53Q26.346586 124.4675 26.346586 122.04562ZM27.424711 122.04562Q27.424711 124.155 27.924711 124.85812Q28.424711 125.56125 29.143461 125.56125Q29.877836 125.56125 30.362211 124.85812Q30.862211 124.155 30.862211 122.04562Q30.862211 119.92062 30.362211 119.23312Q29.877836 118.53 29.127836 118.53Q28.409086 118.53 27.971586 119.13937Q27.424711 119.92062 27.424711 122.04562ZM33.34659 122.04562Q33.34659 120.51437 33.65909 119.5925Q33.97159 118.655 34.580963 118.155Q35.205963 117.655 36.143463 117.655Q36.830963 117.655 37.34659 117.93625Q37.87784 118.2175 38.22159 118.74875Q38.56534 119.26437 38.75284 120.01437Q38.94034 120.76437 38.94034 122.04562Q38.94034 123.56125 38.62784 124.48312Q38.330963 125.405 37.705963 125.92062Q37.09659 126.42062 36.143463 126.42062Q34.90909 126.42062 34.19034 125.53Q33.34659 124.4675 33.34659 122.04562ZM34.424713 122.04562Q34.424713 124.155 34.924713 124.85812Q35.424713 125.56125 36.143463 125.56125Q36.87784 125.56125 37.362213 124.85812Q37.862213 124.155 37.862213 122.04562Q37.862213 119.92062 37.362213 119.23312Q36.87784 118.53 36.12784 118.53Q35.40909 118.53 34.97159 119.13937Q34.424713 119.92062 34.424713 122.04562ZM40.34659 122.04562Q40.34659 120.51437 40.65909 119.5925Q40.97159 118.655 41.580963 118.155Q42.205963 117.655 43.143463 117.655Q43.830963 117.655 44.34659 117.93625Q44.87784 118.2175 45.22159 118.74875Q45.56534 119.26437 45.75284 120.01437Q45.94034 120.76437 45.94034 122.04562Q45.94034 123.56125 45.62784 124.48312Q45.330963 125.405 44.705963 125.92062Q44.09659 126.42062 43.143463 126.42062Q41.90909 126.42062 41.19034 125.53Q40.34659 124.4675 40.34659 122.04562ZM41.424713 122.04562Q41.424713 124.155 41.924713 124.85812Q42.424713 125.56125 43.143463 125.56125Q43.87784 125.56125 44.362213 124.85812Q44.862213 124.155 44.862213 122.04562Q44.862213 119.92062 44.362213 119.23312Q43.87784 118.53 43.12784 118.53Q42.40909 118.53 41.97159 119.13937Q41.424713 119.92062 41.424713 122.04562Z" fill-rule="nonzero"/><path fill="#000000" d="M16.315336 91.17L15.268461 91.17L15.268461 84.45125Q14.877836 84.81062 14.252836 85.18562Q13.643461 85.545 13.159086 85.71687L13.159086 84.70125Q14.034086 84.27937 14.690336 83.70125Q15.362211 83.1075 15.643461 82.545L16.315336 82.545L16.315336 91.17ZM19.346586 88.92L20.455961 88.82625Q20.580961 89.63875 21.018461 90.045Q21.471586 90.45125 22.112211 90.45125Q22.862211 90.45125 23.393461 89.87312Q23.924711 89.295 23.924711 88.3575Q23.924711 87.45125 23.409086 86.93562Q22.909086 86.40437 22.080961 86.40437Q21.580961 86.40437 21.159086 86.63875Q20.752836 86.87312 20.518461 87.2325L19.534086 87.1075L20.362211 82.70125L24.643461 82.70125L24.643461 83.70125L21.205961 83.70125L20.752836 86.01375Q21.518461 85.46687 22.362211 85.46687Q23.487211 85.46687 24.252836 86.24812Q25.034086 87.02937 25.034086 88.26375Q25.034086 89.42 24.362211 90.27937Q23.534086 91.31062 22.112211 91.31062Q20.940336 91.31062 20.190336 90.65437Q19.455961 89.99812 19.346586 88.92ZM26.346586 86.93562Q26.346586 85.40437 26.659086 84.4825Q26.971586 83.545 27.580961 83.045Q28.205961 82.545 29.143461 82.545Q29.830961 82.545 30.346586 82.82625Q30.877836 83.1075 31.221586 83.63875Q31.565336 84.15437 31.752836 84.90437Q31.940336 85.65437 31.940336 86.93562Q31.940336 88.45125 31.627836 89.37312Q31.330961 90.295 30.705961 90.81062Q30.096586 91.31062 29.143461 91.31062Q27.909086 91.31062 27.190336 90.42Q26.346586 89.3575 26.346586 86.93562ZM27.424711 86.93562Q27.424711 89.045 27.924711 89.74812Q28.424711 90.45125 29.143461 90.45125Q29.877836 90.45125 30.362211 89.74812Q30.862211 89.045 30.862211 86.93562Q30.862211 84.81062 30.362211 84.12312Q29.877836 83.42 29.127836 83.42Q28.409086 83.42 27.971586 84.02937Q27.424711 84.81062 27.424711 86.93562ZM33.34659 86.93562Q33.34659 85.40437 33.65909 84.4825Q33.97159 83.545 34.580963 83.045Q35.205963 82.545 36.143463 82.545Q36.830963 82.545 37.34659 82.82625Q37.87784 83.1075 38.22159 83.63875Q38.56534 84.15437 38.75284 84.90437Q38.94034 85.65437 38.94034 86.93562Q38.94034 88.45125 38.62784 89.37312Q38.330963 90.295 37.705963 90.81062Q37.09659 91.31062 36.143463 91.31062Q34.90909 91.31062 34.19034 90.42Q33.34659 89.3575 33.34659 86.93562ZM34.424713 86.93562Q34.424713 89.045 34.924713 89.74812Q35.424713 90.45125 36.143463 90.45125Q36.87784 90.45125 37.362213 89.74812Q37.862213 89.045 37.862213 86.93562Q37.862213 84.81062 37.362213 84.12312Q36.87784 83.42 36.12784 83.42Q35.40909 83.42 34.97159 84.02937Q34.424713 84.81062 34.424713 86.93562ZM40.34659 86.93562Q40.34659 85.40437 40.65909 84.4825Q40.97159 83.545 41.580963 83.045Q42.205963 82.545 43.143463 82.545Q43.830963 82.545 44.34659 82.82625Q44.87784 83.1075 45.22159 83.63875Q45.56534 84.15437 45.75284 84.90437Q45.94034 85.65437 45.94034 86.93562Q45.94034 88.45125 45.62784 89.37312Q45.330963 90.295 44.705963 90.81062Q44.09659 91.31062 43.143463 91.31062Q41.90909 91.31062 41.19034 90.42Q40.34659 89.3575 40.34659 86.93562ZM41.424713 86.93562Q41.424713 89.045 41.924713 89.74812Q42.424713 90.45125 43.143463 90.45125Q43.87784 90.45125 44.362213 89.74812Q44.862213 89.045 44.862213 86.93562Q44.862213 84.81062 44.362213 84.12312Q43.87784 83.42 43.12784 83.42Q42.40909 83.42 41.97159 84.02937Q41.424713 84.81062 41.424713 86.93562Z" fill-rule="nonzero"/><path fill="#000000" d="M17.893461 55.044376L17.893461 56.06L12.205961 56.06Q12.205961 55.685 12.330961 55.325626Q12.549711 54.7475 13.018461 54.185Q13.502836 53.6225 14.409086 52.888126Q15.815336 51.731876 16.299711 51.06Q16.799711 50.388126 16.799711 49.794376Q16.799711 49.169376 16.346586 48.7475Q15.893461 48.31 15.174711 48.31Q14.409086 48.31 13.955961 48.763126Q13.502836 49.21625 13.487211 50.02875L12.409086 49.919376Q12.518461 48.700626 13.237211 48.075626Q13.971586 47.435 15.205961 47.435Q16.440336 47.435 17.159086 48.1225Q17.877836 48.81 17.877836 49.825626Q17.877836 50.34125 17.659086 50.84125Q17.455961 51.325626 16.955961 51.888126Q16.471586 52.435 15.346586 53.388126Q14.393461 54.185 14.112211 54.481876Q13.846586 54.763126 13.674711 55.044376L17.893461 55.044376ZM19.346586 51.825626Q19.346586 50.294376 19.659086 49.3725Q19.971586 48.435 20.580961 47.935Q21.205961 47.435 22.143461 47.435Q22.830961 47.435 23.346586 47.71625Q23.877836 47.9975 24.221586 48.52875Q24.565336 49.044376 24.752836 49.794376Q24.940336 50.544376 24.940336 51.825626Q24.940336 53.34125 24.627836 54.263126Q24.330961 55.185 23.705961 55.700626Q23.096586 56.200626 22.143461 56.200626Q20.909086 56.200626 20.190336 55.31Q19.346586 54.2475 19.346586 51.825626ZM20.424711 51.825626Q20.424711 53.935 20.924711 54.638126Q21.424711 55.34125 22.143461 55.34125Q22.877836 55.34125 23.362211 54.638126Q23.862211 53.935 23.862211 51.825626Q23.862211 49.700626 23.362211 49.013126Q22.877836 48.31 22.127836 48.31Q21.409086 48.31 20.971586 48.919376Q20.424711 49.700626 20.424711 51.825626ZM26.346586 51.825626Q26.346586 50.294376 26.659086 49.3725Q26.971586 48.435 27.580961 47.935Q28.205961 47.435 29.143461 47.435Q29.830961 47.435 30.346586 47.71625Q30.877836 47.9975 31.221586 48.52875Q31.565336 49.044376 31.752836 49.794376Q31.940336 50.544376 31.940336 51.825626Q31.940336 53.34125 31.627836 54.263126Q31.330961 55.185 30.705961 55.700626Q30.096586 56.200626 29.143461 56.200626Q27.909086 56.200626 27.190336 55.31Q26.346586 54.2475 26.346586 51.825626ZM27.424711 51.825626Q27.424711 53.935 27.924711 54.638126Q28.424711 55.34125 29.143461 55.34125Q29.877836 55.34125 30.362211 54.638126Q30.862211 53.935 30.862211 51.825626Q30.862211 49.700626 30.362211 49.013126Q29.877836 48.31 29.127836 48.31Q28.409086 48.31 27.971586 48.919376Q27.424711 49.700626 27.424711 51.825626ZM33.34659 51.825626Q33.34659 50.294376 33.65909 49.3725Q33.97159 48.435 34.580963 47.935Q35.205963 47.435 36.143463 47.435Q36.830963 47.435 37.34659 47.71625Q37.87784 47.9975 38.22159 48.52875Q38.56534 49.044376 38.75284 49.794376Q38.94034 50.544376 38.94034 51.825626Q38.94034 53.34125 38.62784 54.263126Q38.330963 55.185 37.705963 55.700626Q37.09659 56.200626 36.143463 56.200626Q34.90909 56.200626 34.19034 55.31Q33.34659 54.2475 33.34659 51.825626ZM34.424713 51.825626Q34.424713 53.935 34.924713 54.638126Q35.424713 55.34125 36.143463 55.34125Q36.87784 55.34125 37.362213 54.638126Q37.862213 53.935 37.862213 51.825626Q37.862213 49.700626 37.362213 49.013126Q36.87784 48.31 36.12784 48.31Q35.40909 48.31 34.97159 48.919376Q34.424713 49.700626 34.424713 51.825626ZM40.34659 51.825626Q40.34659 50.294376 40.65909 49.3725Q40.97159 48.435 41.580963 47.935Q42.205963 47.435 43.143463 47.435Q43.830963 47.435 44.34659 47.71625Q44.87784 47.9975 45.22159 48.52875Q45.56534 49.044376 45.75284 49.794376Q45.94034 50.544376 45.94034 51.825626Q45.94034 53.34125 45.62784 54.263126Q45.330963 55.185 44.705963 55.700626Q44.09659 56.200626 43.143463 56.200626Q41.90909 56.200626 41.19034 55.31Q40.34659 54.2475 40.34659 51.825626ZM41.424713 51.825626Q41.424713 53.935 41.924713 54.638126Q42.424713 55.34125 43.143463 55.34125Q43.87784 55.34125 44.362213 54.638126Q44.862213 53.935 44.862213 51.825626Q44.862213 49.700626 44.362213 49.013126Q43.87784 48.31 43.12784 48.31Q42.40909 48.31 41.97159 48.919376Q41.424713 49.700626 41.424713 51.825626Z" fill-rule="nonzero"/><path fill="#000000" d="M17.893461 19.934376L17.893461 20.95L12.205961 20.95Q12.205961 20.575 12.330961 20.215626Q12.549711 19.6375 13.018461 19.075Q13.502836 18.5125 14.409086 17.778126Q15.815336 16.621876 16.299711 15.950001Q16.799711 15.278126 16.799711 14.684376Q16.799711 14.059376 16.346586 13.637501Q15.893461 13.200001 15.174711 13.200001Q14.409086 13.200001 13.955961 13.653126Q13.502836 14.106251 13.487211 14.918751L12.409086 14.809376Q12.518461 13.590626 13.237211 12.965626Q13.971586 12.325001 15.205961 12.325001Q16.440336 12.325001 17.159086 13.012501Q17.877836 13.700001 17.877836 14.715626Q17.877836 15.231251 17.659086 15.731251Q17.455961 16.215626 16.955961 16.778126Q16.471586 17.325 15.346586 18.278126Q14.393461 19.075 14.112211 19.371876Q13.846586 19.653126 13.674711 19.934376L17.893461 19.934376ZM19.346586 18.7L20.455961 18.60625Q20.580961 19.41875 21.018461 19.825Q21.471586 20.23125 22.112211 20.23125Q22.862211 20.23125 23.393461 19.653126Q23.924711 19.075 23.924711 18.1375Q23.924711 17.23125 23.409086 16.715626Q22.909086 16.184376 22.080961 16.184376Q21.580961 16.184376 21.159086 16.41875Q20.752836 16.653126 20.518461 17.0125L19.534086 16.8875L20.362211 12.481251L24.643461 12.481251L24.643461 13.481251L21.205961 13.481251L20.752836 15.793751Q21.518461 15.246876 22.362211 15.246876Q23.487211 15.246876 24.252836 16.028126Q25.034086 16.809376 25.034086 18.04375Q25.034086 19.2 24.362211 20.059376Q23.534086 21.090626 22.112211 21.090626Q20.940336 21.090626 20.190336 20.434376Q19.455961 19.778126 19.346586 18.7ZM26.346586 16.715626Q26.346586 15.184376 26.659086 14.262501Q26.971586 13.325001 27.580961 12.825001Q28.205961 12.325001 29.143461 12.325001Q29.830961 12.325001 30.346586 12.606251Q30.877836 12.887501 31.221586 13.418751Q31.565336 13.934376 31.752836 14.684376Q31.940336 15.434376 31.940336 16.715626Q31.940336 18.23125 31.627836 19.153126Q31.330961 20.075 30.705961 20.590626Q30.096586 21.090626 29.143461 21.090626Q27.909086 21.090626 27.190336 20.2Q26.346586 19.1375 26.346586 16.715626ZM27.424711 16.715626Q27.424711 18.825 27.924711 19.528126Q28.424711 20.23125 29.143461 20.23125Q29.877836 20.23125 30.362211 19.528126Q30.862211 18.825 30.862211 16.715626Q30.862211 14.590626 30.362211 13.903126Q29.877836 13.200001 29.127836 13.200001Q28.409086 13.200001 27.971586 13.809376Q27.424711 14.590626 27.424711 16.715626ZM33.34659 16.715626Q33.34659 15.184376 33.65909 14.262501Q33.97159 13.325001 34.580963 12.825001Q35.205963 12.325001 36.143463 12.325001Q36.830963 12.325001 37.34659 12.606251Q37.87784 12.887501 38.22159 13.418751Q38.56534 13.934376 38.75284 14.684376Q38.94034 15.434376 38.94034 16.715626Q38.94034 18.23125 38.62784 19.153126Q38.330963 20.075 37.705963 20.590626Q37.09659 21.090626 36.143463 21.090626Q34.90909 21.090626 34.19034 20.2Q33.34659 19.1375 33.34659 16.715626ZM34.424713 16.715626Q34.424713 18.825 34.924713 19.528126Q35.424713 20.23125 36.143463 20.23125Q36.87784 20.23125 37.362213 19.528126Q37.862213 18.825 37.862213 16.715626Q37.862213 14.590626 37.362213 13.903126Q36.87784 13.200001 36.12784 13.200001Q35.40909 13.200001 34.97159 13.809376Q34.424713 14.590626 34.424713 16.715626ZM40.34659 16.715626Q40.34659 15.184376 40.65909 14.262501Q40.97159 13.325001 41.580963 12.825001Q42.205963 12.325001 43.143463 12.325001Q43.830963 12.325001 44.34659 12.606251Q44.87784 12.887501 45.22159 13.418751Q45.56534 13.934376 45.75284 14.684376Q45.94034 15.434376 45.94034 16.715626Q45.94034 18.23125 45.62784 19.153126Q45.330963 20.075 44.705963 20.590626Q44.09659 21.090626 43.143463 21.090626Q41.90909 21.090626 41.19034 20.2Q40.34659 19.1375 40.34659 16.715626ZM41.424713 16.715626Q41.424713 18.825 41.924713 19.528126Q42.424713 20.23125 43.143463 20.23125Q43.87784 20.23125 44.362213 19.528126Q44.862213 18.825 44.862213 16.715626Q44.862213 14.590626 44.362213 13.903126Q43.87784 13.200001 43.12784 13.200001Q42.40909 13.200001 41.97159 13.809376Q41.424713 14.590626 41.424713 16.715626Z" fill-rule="nonzero"/><path fill="#000000" d="M83.89664 209.5L82.84976 209.5L82.84976 202.78125Q82.45914 203.14062 81.83414 203.51562Q81.22476 203.875 80.74039 204.04688L80.74039 203.03125Q81.61539 202.60938 82.27164 202.03125Q82.94351 201.4375 83.22476 200.875L83.89664 200.875L83.89664 209.5ZM86.92789 205.26562Q86.92789 203.73438 87.24039 202.8125Q87.55289 201.875 88.16226 201.375Q88.78726 200.875 89.72476 200.875Q90.41226 200.875 90.92789 201.15625Q91.45914 201.4375 91.80289 201.96875Q92.14664 202.48438 92.33414 203.23438Q92.52164 203.98438 92.52164 205.26562Q92.52164 206.78125 92.20914 207.70312Q91.91226 208.625 91.28726 209.14062Q90.67789 209.64062 89.72476 209.64062Q88.49039 209.64062 87.77164 208.75Q86.92789 207.6875 86.92789 205.26562ZM88.00601 205.26562Q88.00601 207.375 88.50601 208.07812Q89.00601 208.78125 89.72476 208.78125Q90.45914 208.78125 90.94351 208.07812Q91.44351 207.375 91.44351 205.26562Q91.44351 203.14062 90.94351 202.45312Q90.45914 201.75 89.70914 201.75Q88.99039 201.75 88.55289 202.35938Q88.00601 203.14062 88.00601 205.26562ZM93.92789 205.26562Q93.92789 203.73438 94.24039 202.8125Q94.55289 201.875 95.16226 201.375Q95.78726 200.875 96.72476 200.875Q97.41226 200.875 97.92789 201.15625Q98.45914 201.4375 98.80289 201.96875Q99.14664 202.48438 99.33414 203.23438Q99.52164 203.98438 99.52164 205.26562Q99.52164 206.78125 99.20914 207.70312Q98.91226 208.625 98.28726 209.14062Q97.67789 209.64062 96.72476 209.64062Q95.49039 209.64062 94.77164 208.75Q93.92789 207.6875 93.92789 205.26562ZM95.00601 205.26562Q95.00601 207.375 95.50601 208.07812Q96.00601 208.78125 96.72476 208.78125Q97.45914 208.78125 97.94351 208.07812Q98.44351 207.375 98.44351 205.26562Q98.44351 203.14062 97.94351 202.45312Q97.45914 201.75 96.70914 201.75Q95.99039 201.75 95.55289 202.35938Q95.00601 203.14062 95.00601 205.26562ZM100.92789 205.26562Q100.92789 203.73438 101.24039 202.8125Q101.55289 201.875 102.16226 201.375Q102.78726 200.875 103.72476 200.875Q104.41226 200.875 104.92789 201.15625Q105.45914 201.4375 105.80289 201.96875Q106.14664 202.48438 106.33414 203.23438Q106.52164 203.98438 106.52164 205.26562Q106.52164 206.78125 106.20914 207.70312Q105.91226 208.625 105.28726 209.14062Q104.67789 209.64062 103.72476 209.64062Q102.49039 209.64062 101.77164 208.75Q100.92789 207.6875 100.92789 205.26562ZM102.00601 205.26562Q102.00601 207.375 102.50601 208.07812Q103.00601 208.78125 103.72476 208.78125Q104.45914 208.78125 104.94351 208.07812Q105.44351 207.375 105.44351 205.26562Q105.44351 203.14062 104.94351 202.45312Q104.45914 201.75 103.70914 201.75Q102.99039 201.75 102.55289 202.35938Q102.00601 203.14062 102.00601 205.26562ZM107.92789 205.26562Q107.92789 203.73438 108.24039 202.8125Q108.55289 201.875 109.16226 201.375Q109.78726 200.875 110.72476 200.875Q111.41226 200.875 111.92789 201.15625Q112.45914 201.4375 112.80289 201.96875Q113.14664 202.48438 113.33414 203.23438Q113.52164 203.98438 113.52164 205.26562Q113.52164 206.78125 113.20914 207.70312Q112.91226 208.625 112.28726 209.14062Q111.67789 209.64062 110.72476 209.64062Q109.49039 209.64062 108.77164 208.75Q107.92789 207.6875 107.92789 205.26562ZM109.00601 205.26562Q109.00601 207.375 109.50601 208.07812Q110.00601 208.78125 110.72476 208.78125Q111.45914 208.78125 111.94351 208.07812Q112.44351 207.375 112.44351 205.26562Q112.44351 203.14062 111.94351 202.45312Q111.45914 201.75 110.70914 201.75Q109.99039 201.75 109.55289 202.35938Q109.00601 203.14062 109.00601 205.26562ZM114.92789 205.26562Q114.92789 203.73438 115.24039 202.8125Q115.55289 201.875 116.16226 201.375Q116.78726 200.875 117.72476 200.875Q118.41226 200.875 118.92789 201.15625Q119.45914 201.4375 119.80289 201.96875Q120.14664 202.48438 120.33414 203.23438Q120.52164 203.98438 120.52164 205.26562Q120.52164 206.78125 120.20914 207.70312Q119.91226 208.625 119.28726 209.14062Q118.67789 209.64062 117.72476 209.64062Q116.49039 209.64062 115.77164 208.75Q114.92789 207.6875 114.92789 205.26562ZM116.00601 205.26562Q116.00601 207.375 116.50601 208.07812Q117.00601 208.78125 117.72476 208.78125Q118.45914 208.78125 118.94351 208.07812Q119.44351 207.375 119.44351 205.26562Q119.44351 203.14062 118.94351 202.45312Q118.45914 201.75 117.70914 201.75Q116.99039 201.75 116.55289 202.35938Q116.00601 203.14062 116.00601 205.26562Z" fill-rule="nonzero"/><path fill="#000000" d="M154.38745 209.5L153.34058 209.5L153.34058 202.78125Q152.94995 203.14062 152.32495 203.51562Q151.71558 203.875 151.2312 204.04688L151.2312 203.03125Q152.1062 202.60938 152.76245 202.03125Q153.43433 201.4375 153.71558 200.875L154.38745 200.875L154.38745 209.5ZM157.4187 205.26562Q157.4187 203.73438 157.7312 202.8125Q158.0437 201.875 158.65308 201.375Q159.27808 200.875 160.21558 200.875Q160.90308 200.875 161.4187 201.15625Q161.94995 201.4375 162.2937 201.96875Q162.63745 202.48438 162.82495 203.23438Q163.01245 203.98438 163.01245 205.26562Q163.01245 206.78125 162.69995 207.70312Q162.40308 208.625 161.77808 209.14062Q161.1687 209.64062 160.21558 209.64062Q158.9812 209.64062 158.26245 208.75Q157.4187 207.6875 157.4187 205.26562ZM158.49683 205.26562Q158.49683 207.375 158.99683 208.07812Q159.49683 208.78125 160.21558 208.78125Q160.94995 208.78125 161.43433 208.07812Q161.93433 207.375 161.93433 205.26562Q161.93433 203.14062 161.43433 202.45312Q160.94995 201.75 160.19995 201.75Q159.4812 201.75 159.0437 202.35938Q158.49683 203.14062 158.49683 205.26562ZM164.4187 205.26562Q164.4187 203.73438 164.7312 202.8125Q165.0437 201.875 165.65308 201.375Q166.27808 200.875 167.21558 200.875Q167.90308 200.875 168.4187 201.15625Q168.94995 201.4375 169.2937 201.96875Q169.63745 202.48438 169.82495 203.23438Q170.01245 203.98438 170.01245 205.26562Q170.01245 206.78125 169.69995 207.70312Q169.40308 208.625 168.77808 209.14062Q168.1687 209.64062 167.21558 209.64062Q165.9812 209.64062 165.26245 208.75Q164.4187 207.6875 164.4187 205.26562ZM165.49683 205.26562Q165.49683 207.375 165.99683 208.07812Q166.49683 208.78125 167.21558 208.78125Q167.94995 208.78125 168.43433 208.07812Q168.93433 207.375 168.93433 205.26562Q168.93433 203.14062 168.43433 202.45312Q167.94995 201.75 167.19995 201.75Q166.4812 201.75 166.0437 202.35938Q165.49683 203.14062 165.49683 205.26562ZM171.4187 205.26562Q171.4187 203.73438 171.7312 202.8125Q172.0437 201.875 172.65308 201.375Q173.27808 200.875 174.21558 200.875Q174.90308 200.875 175.4187 201.15625Q175.94995 201.4375 176.2937 201.96875Q176.63745 202.48438 176.82495 203.23438Q177.01245 203.98438 177.01245 205.26562Q177.01245 206.78125 176.69995 207.70312Q176.40308 208.625 175.77808 209.14062Q175.1687 209.64062 174.21558 209.64062Q172.9812 209.64062 172.26245 208.75Q171.4187 207.6875 171.4187 205.26562ZM172.49683 205.26562Q172.49683 207.375 172.99683 208.07812Q173.49683 208.78125 174.21558 208.78125Q174.94995 208.78125 175.43433 208.07812Q175.93433 207.375 175.93433 205.26562Q175.93433 203.14062 175.43433 202.45312Q174.94995 201.75 174.19995 201.75Q173.4812 201.75 173.0437 202.35938Q172.49683 203.14062 172.49683 205.26562ZM178.4187 205.26562Q178.4187 203.73438 178.7312 202.8125Q179.0437 201.875 179.65308 201.375Q180.27808 200.875 181.21558 200.875Q181.90308 200.875 182.4187 201.15625Q182.94995 201.4375 183.2937 201.96875Q183.63745 202.48438 183.82495 203.23438Q184.01245 203.98438 184.01245 205.26562Q184.01245 206.78125 183.69995 207.70312Q183.40308 208.625 182.77808 209.14062Q182.1687 209.64062 181.21558 209.64062Q179.9812 209.64062 179.26245 208.75Q178.4187 207.6875 178.4187 205.26562ZM179.49683 205.26562Q179.49683 207.375 179.99683 208.07812Q180.49683 208.78125 181.21558 208.78125Q181.94995 208.78125 182.43433 208.07812Q182.93433 207.375 182.93433 205.26562Q182.93433 203.14062 182.43433 202.45312Q181.94995 201.75 181.19995 201.75Q180.4812 201.75 180.0437 202.35938Q179.49683 203.14062 179.49683 205.26562ZM185.4187 205.26562Q185.4187 203.73438 185.7312 202.8125Q186.0437 201.875 186.65308 201.375Q187.27808 200.875 188.21558 200.875Q188.90308 200.875 189.4187 201.15625Q189.94995 201.4375 190.2937 201.96875Q190.63745 202.48438 190.82495 203.23438Q191.01245 203.98438 191.01245 205.26562Q191.01245 206.78125 190.69995 207.70312Q190.40308 208.625 189.77808 209.14062Q189.1687 209.64062 188.21558 209.64062Q186.9812 209.64062 186.26245 208.75Q185.4187 207.6875 185.4187 205.26562ZM186.49683 205.26562Q186.49683 207.375 186.99683 208.07812Q187.49683 208.78125 188.21558 208.78125Q188.94995 208.78125 189.43433 208.07812Q189.93433 207.375 189.93433 205.26562Q189.93433 203.14062 189.43433 202.45312Q188.94995 201.75 188.19995 201.75Q187.4812 201.75 187.0437 202.35938Q186.49683 203.14062 186.49683 205.26562Z" fill-rule="nonzero"/></svg>