<svg version="1.1" viewBox="0.0 0.0 230.0 229.0" fill="none" stroke="none" stroke-linecap="square" stroke-miterlimit="10" width="230" height="229" xmlns:xlink="http://www.w3.org/1999/xlink" xmlns="http://www.w3.org/2000/svg"><path fill="#ffffff" d="M0 0L230.0 0L230.0 229.0L0 229.0L0 0Z" fill-rule="nonzero"/><path stroke="#333333" stroke-width="1.0" stroke-linecap="butt" d="M57.5 192.5L218.5 192.5" fill-rule="nonzero"/><path stroke="#cccccc" stroke-width="1.0" stroke-linecap="butt" d="M57.5 157.5L218.5 157.5" fill-rule="nonzero"/><path stroke="#cccccc" stroke-width="1.0" stroke-linecap="butt" d="M57.5 122.5L218.5 122.5" fill-rule="nonzero"/><path stroke="#cccccc" stroke-width="1.0" stroke-linecap="butt" d="M57.5 87.5L218.5 87.5" fill-rule="nonzero"/><path stroke="#cccccc" stroke-width="1.0" stroke-linecap="butt" d="M57.5 52.5L218.5 52.5" fill-rule="nonzero"/><path stroke="#cccccc" stroke-width="1.0" stroke-linecap="butt" d="M57.5 17.5L218.5 17.5" fill-rule="nonzero"/><clipPath id="id_0"><path d="M57.49297 17.45L218.55 17.45L218.55 192.5L57.49297 192.5L57.49297 17.45Z" clip-rule="nonzero"/></clipPath><path stroke="#4285f4" stroke-width="2.0" stroke-linecap="butt" clip-path="url(#id_0)" d="M103.75403 41.063404L103.75403 52.087635" fill-rule="nonzero"/><path stroke="#4285f4" stroke-width="2.0" stroke-linecap="butt" clip-path="url(#id_0)" d="M103.75403 52.087635L103.75403 41.063404" fill-rule="nonzero"/><path fill="#4285f4" clip-path="url(#id_0)" d="M80.48019 40.063404L127.02788 40.063404L127.02788 53.08763L80.48019 53.08763L80.48019 40.063404Z" fill-rule="nonzero"/><path stroke="#4285f4" stroke-width="2.0" stroke-linecap="butt" clip-path="url(#id_0)" d="M172.28894 42.719658L172.28894 59.91174" fill-rule="nonzero"/><path stroke="#4285f4" stroke-width="2.0" stroke-linecap="butt" clip-path="url(#id_0)" d="M172.28894 59.91174L172.28894 42.719658" fill-rule="nonzero"/><path fill="#4285f4" clip-path="url(#id_0)" d="M149.01509 41.719658L195.56277 41.719658L195.56277 60.91174L149.01509 60.91174L149.01509 41.719658Z" fill-rule="nonzero"/><path fill="#000000" d="M68.365234 225.35973L68.365234 216.76598L70.97461 216.76598L72.521484 222.62535L74.06836 216.76598L76.66211 216.76598L76.66211 225.35973L75.052734 225.35973L75.052734 218.5941L73.34961 225.35973L71.677734 225.35973L69.990234 218.5941L69.990234 225.35973L68.365234 225.35973ZM79.615234 221.0316L78.115234 220.76598Q78.365234 219.85973 78.97461 219.43785Q79.59961 219.00035 80.81836 219.00035Q81.91211 219.00035 82.44336 219.26598Q82.990234 219.51598 83.208984 219.92223Q83.427734 220.31285 83.427734 221.39098L83.41211 223.31285Q83.41211 224.14098 83.490234 224.5316Q83.56836 224.9066 83.78711 225.35973L82.16211 225.35973Q82.09961 225.18785 82.00586 224.87535Q81.958984 224.7191 81.94336 224.67223Q81.521484 225.0941 81.03711 225.29723Q80.56836 225.50035 80.021484 225.50035Q79.052734 225.50035 78.490234 224.98473Q77.94336 224.45348 77.94336 223.6566Q77.94336 223.12535 78.19336 222.7191Q78.458984 222.31285 78.91211 222.0941Q79.365234 221.85973 80.22461 221.70348Q81.365234 221.48473 81.81836 221.29723L81.81836 221.14098Q81.81836 220.6566 81.583984 220.45348Q81.34961 220.25035 80.69336 220.25035Q80.25586 220.25035 80.00586 220.42223Q79.771484 220.5941 79.615234 221.0316ZM81.81836 222.37535Q81.50586 222.4691 80.81836 222.62535Q80.13086 222.76598 79.91211 222.9066Q79.59961 223.14098 79.59961 223.48473Q79.59961 223.82848 79.84961 224.0941Q80.115234 224.3441 80.50586 224.3441Q80.958984 224.3441 81.365234 224.04723Q81.66211 223.82848 81.75586 223.50035Q81.81836 223.29723 81.81836 222.70348L81.81836 222.37535ZM90.802734 220.9691L89.19336 221.26598Q89.09961 220.7816 88.802734 220.54723Q88.521484 220.29723 88.06836 220.29723Q87.44336 220.29723 87.06836 220.7191Q86.708984 221.14098 86.708984 222.14098Q86.708984 223.25035 87.083984 223.70348Q87.458984 224.1566 88.083984 224.1566Q88.552734 224.1566 88.84961 223.89098Q89.146484 223.62535 89.271484 222.9691L90.896484 223.25035Q90.646484 224.35973 89.927734 224.93785Q89.208984 225.50035 88.00586 225.50035Q86.646484 225.50035 85.833984 224.64098Q85.021484 223.7816 85.021484 222.25035Q85.021484 220.7191 85.833984 219.85973Q86.646484 219.00035 88.03711 219.00035Q89.177734 219.00035 89.84961 219.48473Q90.521484 219.9691 90.802734 220.9691ZM97.802734 220.9691L96.19336 221.26598Q96.09961 220.7816 95.802734 220.54723Q95.521484 220.29723 95.06836 220.29723Q94.44336 220.29723 94.06836 220.7191Q93.708984 221.14098 93.708984 222.14098Q93.708984 223.25035 94.083984 223.70348Q94.458984 224.1566 95.083984 224.1566Q95.552734 224.1566 95.84961 223.89098Q96.146484 223.62535 96.271484 222.9691L97.896484 223.25035Q97.646484 224.35973 96.927734 224.93785Q96.208984 225.50035 95.00586 225.50035Q93.646484 225.50035 92.833984 224.64098Q92.021484 223.7816 92.021484 222.25035Q92.021484 220.7191 92.833984 219.85973Q93.646484 219.00035 95.03711 219.00035Q96.177734 219.00035 96.84961 219.48473Q97.521484 219.9691 97.802734 220.9691ZM101.021484 216.76598L101.021484 219.92223Q101.81836 219.00035 102.927734 219.00035Q103.490234 219.00035 103.94336 219.2191Q104.41211 219.42223 104.646484 219.75035Q104.88086 220.07848 104.958984 220.48473Q105.03711 220.87535 105.03711 221.70348L105.03711 225.35973L103.396484 225.35973L103.396484 222.07848Q103.396484 221.0941 103.302734 220.82848Q103.208984 220.56285 102.97461 220.4066Q102.740234 220.25035 102.38086 220.25035Q101.97461 220.25035 101.646484 220.45348Q101.31836 220.6566 101.16211 221.06285Q101.021484 221.45348 101.021484 222.23473L101.021484 225.35973L99.38086 225.35973L99.38086 216.76598L101.021484 216.76598ZM106.38086 218.29723L106.38086 216.76598L108.03711 216.76598L108.03711 218.29723L106.38086 218.29723ZM106.38086 225.35973L106.38086 219.14098L108.03711 219.14098L108.03711 225.35973L106.38086 225.35973ZM115.03711 225.35973L113.396484 225.35973L113.396484 222.18785Q113.396484 221.17223 113.28711 220.87535Q113.19336 220.57848 112.94336 220.42223Q112.708984 220.25035 112.38086 220.25035Q111.94336 220.25035 111.59961 220.48473Q111.271484 220.7191 111.146484 221.10973Q111.021484 221.50035 111.021484 222.54723L111.021484 225.35973L109.365234 225.35973L109.365234 219.14098L110.896484 219.14098L110.896484 220.04723Q111.708984 219.00035 112.958984 219.00035Q113.490234 219.00035 113.94336 219.20348Q114.396484 219.39098 114.63086 219.70348Q114.865234 220.00035 114.94336 220.39098Q115.03711 220.76598 115.03711 221.48473L115.03711 225.35973ZM117.615234 221.0316L116.115234 220.76598Q116.365234 219.85973 116.97461 219.43785Q117.59961 219.00035 118.81836 219.00035Q119.91211 219.00035 120.44336 219.26598Q120.990234 219.51598 121.208984 219.92223Q121.427734 220.31285 121.427734 221.39098L121.41211 223.31285Q121.41211 224.14098 121.490234 224.5316Q121.56836 224.9066 121.78711 225.35973L120.16211 225.35973Q120.09961 225.18785 120.00586 224.87535Q119.958984 224.7191 119.94336 224.67223Q119.521484 225.0941 119.03711 225.29723Q118.56836 225.50035 118.021484 225.50035Q117.052734 225.50035 116.490234 224.98473Q115.94336 224.45348 115.94336 223.6566Q115.94336 223.12535 116.19336 222.7191Q116.458984 222.31285 116.91211 222.0941Q117.365234 221.85973 118.22461 221.70348Q119.365234 221.48473 119.81836 221.29723L119.81836 221.14098Q119.81836 220.6566 119.583984 220.45348Q119.34961 220.25035 118.69336 220.25035Q118.25586 220.25035 118.00586 220.42223Q117.771484 220.5941 117.615234 221.0316ZM119.81836 222.37535Q119.50586 222.4691 118.81836 222.62535Q118.13086 222.76598 117.91211 222.9066Q117.59961 223.14098 117.59961 223.48473Q117.59961 223.82848 117.84961 224.0941Q118.115234 224.3441 118.50586 224.3441Q118.958984 224.3441 119.365234 224.04723Q119.66211 223.82848 119.75586 223.50035Q119.81836 223.29723 119.81836 222.70348L119.81836 222.37535ZM134.14648 225.35973L132.25586 225.35973L131.50586 223.4066L128.06836 223.4066L127.365234 225.35973L125.521484 225.35973L128.86523 216.76598L130.70898 216.76598L134.14648 225.35973ZM130.94336 221.95348L129.77148 218.76598L128.59961 221.95348L130.94336 221.95348ZM143.36523 225.35973L143.36523 216.76598L145.97461 216.76598L147.52148 222.62535L149.06836 216.76598L151.66211 216.76598L151.66211 225.35973L150.05273 225.35973L150.05273 218.5941L148.34961 225.35973L146.67773 225.35973L144.99023 218.5941L144.99023 225.35973L143.36523 225.35973ZM154.61523 221.0316L153.11523 220.76598Q153.36523 219.85973 153.97461 219.43785Q154.59961 219.00035 155.81836 219.00035Q156.91211 219.00035 157.44336 219.26598Q157.99023 219.51598 158.20898 219.92223Q158.42773 220.31285 158.42773 221.39098L158.41211 223.31285Q158.41211 224.14098 158.49023 224.5316Q158.56836 224.9066 158.78711 225.35973L157.16211 225.35973Q157.09961 225.18785 157.00586 224.87535Q156.95898 224.7191 156.94336 224.67223Q156.52148 225.0941 156.03711 225.29723Q155.56836 225.50035 155.02148 225.50035Q154.05273 225.50035 153.49023 224.98473Q152.94336 224.45348 152.94336 223.6566Q152.94336 223.12535 153.19336 222.7191Q153.45898 222.31285 153.91211 222.0941Q154.36523 221.85973 155.22461 221.70348Q156.36523 221.48473 156.81836 221.29723L156.81836 221.14098Q156.81836 220.6566 156.58398 220.45348Q156.34961 220.25035 155.69336 220.25035Q155.25586 220.25035 155.00586 220.42223Q154.77148 220.5941 154.61523 221.0316ZM156.81836 222.37535Q156.50586 222.4691 155.81836 222.62535Q155.13086 222.76598 154.91211 222.9066Q154.59961 223.14098 154.59961 223.48473Q154.59961 223.82848 154.84961 224.0941Q155.11523 224.3441 155.50586 224.3441Q155.95898 224.3441 156.36523 224.04723Q156.66211 223.82848 156.75586 223.50035Q156.81836 223.29723 156.81836 222.70348L156.81836 222.37535ZM165.80273 220.9691L164.19336 221.26598Q164.09961 220.7816 163.80273 220.54723Q163.52148 220.29723 163.06836 220.29723Q162.44336 220.29723 162.06836 220.7191Q161.70898 221.14098 161.70898 222.14098Q161.70898 223.25035 162.08398 223.70348Q162.45898 224.1566 163.08398 224.1566Q163.55273 224.1566 163.84961 223.89098Q164.14648 223.62535 164.27148 222.9691L165.89648 223.25035Q165.64648 224.35973 164.92773 224.93785Q164.20898 225.50035 163.00586 225.50035Q161.64648 225.50035 160.83398 224.64098Q160.02148 223.7816 160.02148 222.25035Q160.02148 220.7191 160.83398 219.85973Q161.64648 219.00035 163.03711 219.00035Q164.17773 219.00035 164.84961 219.48473Q165.52148 219.9691 165.80273 220.9691ZM172.80273 220.9691L171.19336 221.26598Q171.09961 220.7816 170.80273 220.54723Q170.52148 220.29723 170.06836 220.29723Q169.44336 220.29723 169.06836 220.7191Q168.70898 221.14098 168.70898 222.14098Q168.70898 223.25035 169.08398 223.70348Q169.45898 224.1566 170.08398 224.1566Q170.55273 224.1566 170.84961 223.89098Q171.14648 223.62535 171.27148 222.9691L172.89648 223.25035Q172.64648 224.35973 171.92773 224.93785Q171.20898 225.50035 170.00586 225.50035Q168.64648 225.50035 167.83398 224.64098Q167.02148 223.7816 167.02148 222.25035Q167.02148 220.7191 167.83398 219.85973Q168.64648 219.00035 170.03711 219.00035Q171.17773 219.00035 171.84961 219.48473Q172.52148 219.9691 172.80273 220.9691ZM176.02148 216.76598L176.02148 219.92223Q176.81836 219.00035 177.92773 219.00035Q178.49023 219.00035 178.94336 219.2191Q179.41211 219.42223 179.64648 219.75035Q179.88086 220.07848 179.95898 220.48473Q180.03711 220.87535 180.03711 221.70348L180.03711 225.35973L178.39648 225.35973L178.39648 222.07848Q178.39648 221.0941 178.30273 220.82848Q178.20898 220.56285 177.97461 220.4066Q177.74023 220.25035 177.38086 220.25035Q176.97461 220.25035 176.64648 220.45348Q176.31836 220.6566 176.16211 221.06285Q176.02148 221.45348 176.02148 222.23473L176.02148 225.35973L174.38086 225.35973L174.38086 216.76598L176.02148 216.76598ZM181.38086 218.29723L181.38086 216.76598L183.03711 216.76598L183.03711 218.29723L181.38086 218.29723ZM181.38086 225.35973L181.38086 219.14098L183.03711 219.14098L183.03711 225.35973L181.38086 225.35973ZM190.03711 225.35973L188.39648 225.35973L188.39648 222.18785Q188.39648 221.17223 188.28711 220.87535Q188.19336 220.57848 187.94336 220.42223Q187.70898 220.25035 187.38086 220.25035Q186.94336 220.25035 186.59961 220.48473Q186.27148 220.7191 186.14648 221.10973Q186.02148 221.50035 186.02148 222.54723L186.02148 225.35973L184.36523 225.35973L184.36523 219.14098L185.89648 219.14098L185.89648 220.04723Q186.70898 219.00035 187.95898 219.00035Q188.49023 219.00035 188.94336 219.20348Q189.39648 219.39098 189.63086 219.70348Q189.86523 220.00035 189.94336 220.39098Q190.03711 220.76598 190.03711 221.48473L190.03711 225.35973ZM192.61523 221.0316L191.11523 220.76598Q191.36523 219.85973 191.97461 219.43785Q192.59961 219.00035 193.81836 219.00035Q194.91211 219.00035 195.44336 219.26598Q195.99023 219.51598 196.20898 219.92223Q196.42773 220.31285 196.42773 221.39098L196.41211 223.31285Q196.41211 224.14098 196.49023 224.5316Q196.56836 224.9066 196.78711 225.35973L195.16211 225.35973Q195.09961 225.18785 195.00586 224.87535Q194.95898 224.7191 194.94336 224.67223Q194.52148 225.0941 194.03711 225.29723Q193.56836 225.50035 193.02148 225.50035Q192.05273 225.50035 191.49023 224.98473Q190.94336 224.45348 190.94336 223.6566Q190.94336 223.12535 191.19336 222.7191Q191.45898 222.31285 191.91211 222.0941Q192.36523 221.85973 193.22461 221.70348Q194.36523 221.48473 194.81836 221.29723L194.81836 221.14098Q194.81836 220.6566 194.58398 220.45348Q194.34961 220.25035 193.69336 220.25035Q193.25586 220.25035 193.00586 220.42223Q192.77148 220.5941 192.61523 221.0316ZM194.81836 222.37535Q194.50586 222.4691 193.81836 222.62535Q193.13086 222.76598 192.91211 222.9066Q192.59961 223.14098 192.59961 223.48473Q192.59961 223.82848 192.84961 224.0941Q193.11523 224.3441 193.50586 224.3441Q193.95898 224.3441 194.36523 224.04723Q194.66211 223.82848 194.75586 223.50035Q194.81836 223.29723 194.81836 222.70348L194.81836 222.37535ZM201.39648 216.76598L204.83398 216.76598Q205.84961 216.76598 206.34961 216.85973Q206.84961 216.93785 207.24023 217.2191Q207.64648 217.48473 207.91211 217.93785Q208.17773 218.37535 208.17773 218.93785Q208.17773 219.5316 207.84961 220.04723Q207.52148 220.54723 206.97461 220.79723Q207.75586 221.01598 208.17773 221.57848Q208.59961 222.12535 208.59961 222.87535Q208.59961 223.45348 208.31836 224.01598Q208.05273 224.56285 207.58398 224.89098Q207.11523 225.2191 206.41211 225.29723Q205.99023 225.3441 204.31836 225.35973L201.39648 225.35973L201.39648 216.76598ZM203.13086 218.20348L203.13086 220.18785L204.27148 220.18785Q205.28711 220.18785 205.53711 220.1566Q205.97461 220.10973 206.22461 219.85973Q206.49023 219.5941 206.49023 219.17223Q206.49023 218.7816 206.27148 218.5316Q206.05273 218.2816 205.61523 218.23473Q205.34961 218.20348 204.13086 218.20348L203.13086 218.20348ZM203.13086 221.60973L203.13086 223.9066L204.74023 223.9066Q205.67773 223.9066 205.92773 223.85973Q206.31836 223.7816 206.55273 223.51598Q206.80273 223.25035 206.80273 222.7816Q206.80273 222.4066 206.61523 222.14098Q206.42773 221.85973 206.06836 221.73473Q205.72461 221.60973 204.53711 221.60973L203.13086 221.60973Z" fill-rule="nonzero"/><path fill="#000000" d="M44.99297 192.26562Q44.99297 190.73438 45.30547 189.8125Q45.61797 188.875 46.227345 188.375Q46.852345 187.875 47.789845 187.875Q48.477345 187.875 48.99297 188.15625Q49.52422 188.4375 49.86797 188.96875Q50.21172 189.48438 50.39922 190.23438Q50.58672 190.98438 50.58672 192.26562Q50.58672 193.78125 50.27422 194.70312Q49.977345 195.625 49.352345 196.14062Q48.74297 196.64062 47.789845 196.64062Q46.55547 196.64062 45.83672 195.75Q44.99297 194.6875 44.99297 192.26562ZM46.071095 192.26562Q46.071095 194.375 46.571095 195.07812Q47.071095 195.78125 47.789845 195.78125Q48.52422 195.78125 49.008595 195.07812Q49.508595 194.375 49.508595 192.26562Q49.508595 190.14062 49.008595 189.45312Q48.52422 188.75 47.77422 188.75Q47.05547 188.75 46.61797 189.35938Q46.071095 190.14062 46.071095 192.26562Z" fill-rule="nonzero"/><path fill="#000000" d="M16.99297 159.24L18.102345 159.14626Q18.227345 159.95876 18.664845 160.365Q19.11797 160.77126 19.758595 160.77126Q20.508595 160.77126 21.039845 160.19313Q21.571095 159.615 21.571095 158.6775Q21.571095 157.77126 21.05547 157.25563Q20.55547 156.72438 19.727345 156.72438Q19.227345 156.72438 18.80547 156.95876Q18.39922 157.19313 18.164845 157.5525L17.18047 157.4275L18.008595 153.02126L22.289845 153.02126L22.289845 154.02126L18.852345 154.02126L18.39922 156.33376Q19.164845 155.78688 20.008595 155.78688Q21.133595 155.78688 21.89922 156.56813Q22.68047 157.34938 22.68047 158.58376Q22.68047 159.74 22.008595 160.59938Q21.18047 161.63063 19.758595 161.63063Q18.58672 161.63063 17.83672 160.97438Q17.102345 160.31813 16.99297 159.24ZM23.99297 157.25563Q23.99297 155.72438 24.30547 154.8025Q24.61797 153.865 25.227345 153.365Q25.852345 152.865 26.789845 152.865Q27.477345 152.865 27.99297 153.14626Q28.52422 153.4275 28.86797 153.95876Q29.21172 154.47438 29.39922 155.22438Q29.58672 155.97438 29.58672 157.25563Q29.58672 158.77126 29.27422 159.69313Q28.977345 160.615 28.352345 161.13063Q27.74297 161.63063 26.789845 161.63063Q25.55547 161.63063 24.83672 160.74Q23.99297 159.6775 23.99297 157.25563ZM25.071095 157.25563Q25.071095 159.365 25.571095 160.06813Q26.071095 160.77126 26.789845 160.77126Q27.52422 160.77126 28.008595 160.06813Q28.508595 159.365 28.508595 157.25563Q28.508595 155.13063 28.008595 154.44313Q27.52422 153.74 26.77422 153.74Q26.05547 153.74 25.61797 154.34938Q25.071095 155.13063 25.071095 157.25563ZM30.99297 157.25563Q30.99297 155.72438 31.30547 154.8025Q31.61797 153.865 32.227345 153.365Q32.852345 152.865 33.789845 152.865Q34.477345 152.865 34.99297 153.14626Q35.52422 153.4275 35.86797 153.95876Q36.21172 154.47438 36.39922 155.22438Q36.58672 155.97438 36.58672 157.25563Q36.58672 158.77126 36.27422 159.69313Q35.977345 160.615 35.352345 161.13063Q34.74297 161.63063 33.789845 161.63063Q32.55547 161.63063 31.83672 160.74Q30.99297 159.6775 30.99297 157.25563ZM32.071095 157.25563Q32.071095 159.365 32.571095 160.06813Q33.071095 160.77126 33.789845 160.77126Q34.52422 160.77126 35.008595 160.06813Q35.508595 159.365 35.508595 157.25563Q35.508595 155.13063 35.008595 154.44313Q34.52422 153.74 33.77422 153.74Q33.05547 153.74 32.61797 154.34938Q32.071095 155.13063 32.071095 157.25563ZM37.99297 157.25563Q37.99297 155.72438 38.30547 154.8025Q38.61797 153.865 39.227345 153.365Q39.852345 152.865 40.789845 152.865Q41.477345 152.865 41.99297 153.14626Q42.52422 153.4275 42.86797 153.95876Q43.21172 154.47438 43.39922 155.22438Q43.58672 155.97438 43.58672 157.25563Q43.58672 158.77126 43.27422 159.69313Q42.977345 160.615 42.352345 161.13063Q41.74297 161.63063 40.789845 161.63063Q39.55547 161.63063 38.83672 160.74Q37.99297 159.6775 37.99297 157.25563ZM39.071095 157.25563Q39.071095 159.365 39.571095 160.06813Q40.071095 160.77126 40.789845 160.77126Q41.52422 160.77126 42.008595 160.06813Q42.508595 159.365 42.508595 157.25563Q42.508595 155.13063 42.008595 154.44313Q41.52422 153.74 40.77422 153.74Q40.05547 153.74 39.61797 154.34938Q39.071095 155.13063 39.071095 157.25563ZM44.99297 157.25563Q44.99297 155.72438 45.30547 154.8025Q45.61797 153.865 46.227345 153.365Q46.852345 152.865 47.789845 152.865Q48.477345 152.865 48.99297 153.14626Q49.52422 153.4275 49.86797 153.95876Q50.21172 154.47438 50.39922 155.22438Q50.58672 155.97438 50.58672 157.25563Q50.58672 158.77126 50.27422 159.69313Q49.977345 160.615 49.352345 161.13063Q48.74297 161.63063 47.789845 161.63063Q46.55547 161.63063 45.83672 160.74Q44.99297 159.6775 44.99297 157.25563ZM46.071095 157.25563Q46.071095 159.365 46.571095 160.06813Q47.071095 160.77126 47.789845 160.77126Q48.52422 160.77126 49.008595 160.06813Q49.508595 159.365 49.508595 157.25563Q49.508595 155.13063 49.008595 154.44313Q48.52422 153.74 47.77422 153.74Q47.05547 153.74 46.61797 154.34938Q46.071095 155.13063 46.071095 157.25563Z" fill-rule="nonzero"/><path fill="#000000" d="M13.961719 126.48L12.914844 126.48L12.914844 119.76125Q12.524219 120.12063 11.899219 120.49563Q11.289844 120.855 10.805469 121.02688L10.805469 120.01125Q11.680469 119.58938 12.336719 119.01125Q13.008594 118.4175 13.289844 117.855L13.961719 117.855L13.961719 126.48ZM16.99297 122.24563Q16.99297 120.71438 17.30547 119.7925Q17.61797 118.855 18.227345 118.355Q18.852345 117.855 19.789845 117.855Q20.477345 117.855 20.99297 118.13625Q21.52422 118.4175 21.86797 118.94875Q22.21172 119.46438 22.39922 120.21438Q22.58672 120.96438 22.58672 122.24563Q22.58672 123.76125 22.27422 124.68313Q21.977345 125.605 21.352345 126.12063Q20.74297 126.62063 19.789845 126.62063Q18.55547 126.62063 17.83672 125.73Q16.99297 124.6675 16.99297 122.24563ZM18.071095 122.24563Q18.071095 124.355 18.571095 125.05813Q19.071095 125.76125 19.789845 125.76125Q20.52422 125.76125 21.008595 125.05813Q21.508595 124.355 21.508595 122.24563Q21.508595 120.12063 21.008595 119.43313Q20.52422 118.73 19.77422 118.73Q19.05547 118.73 18.61797 119.33938Q18.071095 120.12063 18.071095 122.24563ZM23.99297 122.24563Q23.99297 120.71438 24.30547 119.7925Q24.61797 118.855 25.227345 118.355Q25.852345 117.855 26.789845 117.855Q27.477345 117.855 27.99297 118.13625Q28.52422 118.4175 28.86797 118.94875Q29.21172 119.46438 29.39922 120.21438Q29.58672 120.96438 29.58672 122.24563Q29.58672 123.76125 29.27422 124.68313Q28.977345 125.605 28.352345 126.12063Q27.74297 126.62063 26.789845 126.62063Q25.55547 126.62063 24.83672 125.73Q23.99297 124.6675 23.99297 122.24563ZM25.071095 122.24563Q25.071095 124.355 25.571095 125.05813Q26.071095 125.76125 26.789845 125.76125Q27.52422 125.76125 28.008595 125.05813Q28.508595 124.355 28.508595 122.24563Q28.508595 120.12063 28.008595 119.43313Q27.52422 118.73 26.77422 118.73Q26.05547 118.73 25.61797 119.33938Q25.071095 120.12063 25.071095 122.24563ZM30.99297 122.24563Q30.99297 120.71438 31.30547 119.7925Q31.61797 118.855 32.227345 118.355Q32.852345 117.855 33.789845 117.855Q34.477345 117.855 34.99297 118.13625Q35.52422 118.4175 35.86797 118.94875Q36.21172 119.46438 36.39922 120.21438Q36.58672 120.96438 36.58672 122.24563Q36.58672 123.76125 36.27422 124.68313Q35.977345 125.605 35.352345 126.12063Q34.74297 126.62063 33.789845 126.62063Q32.55547 126.62063 31.83672 125.73Q30.99297 124.6675 30.99297 122.24563ZM32.071095 122.24563Q32.071095 124.355 32.571095 125.05813Q33.071095 125.76125 33.789845 125.76125Q34.52422 125.76125 35.008595 125.05813Q35.508595 124.355 35.508595 122.24563Q35.508595 120.12063 35.008595 119.43313Q34.52422 118.73 33.77422 118.73Q33.05547 118.73 32.61797 119.33938Q32.071095 120.12063 32.071095 122.24563ZM37.99297 122.24563Q37.99297 120.71438 38.30547 119.7925Q38.61797 118.855 39.227345 118.355Q39.852345 117.855 40.789845 117.855Q41.477345 117.855 41.99297 118.13625Q42.52422 118.4175 42.86797 118.94875Q43.21172 119.46438 43.39922 120.21438Q43.58672 120.96438 43.58672 122.24563Q43.58672 123.76125 43.27422 124.68313Q42.977345 125.605 42.352345 126.12063Q41.74297 126.62063 40.789845 126.62063Q39.55547 126.62063 38.83672 125.73Q37.99297 124.6675 37.99297 122.24563ZM39.071095 122.24563Q39.071095 124.355 39.571095 125.05813Q40.071095 125.76125 40.789845 125.76125Q41.52422 125.76125 42.008595 125.05813Q42.508595 124.355 42.508595 122.24563Q42.508595 120.12063 42.008595 119.43313Q41.52422 118.73 40.77422 118.73Q40.05547 118.73 39.61797 119.33938Q39.071095 120.12063 39.071095 122.24563ZM44.99297 122.24563Q44.99297 120.71438 45.30547 119.7925Q45.61797 118.855 46.227345 118.355Q46.852345 117.855 47.789845 117.855Q48.477345 117.855 48.99297 118.13625Q49.52422 118.4175 49.86797 118.94875Q50.21172 119.46438 50.39922 120.21438Q50.58672 120.96438 50.58672 122.24563Q50.58672 123.76125 50.27422 124.68313Q49.977345 125.605 49.352345 126.12063Q48.74297 126.62063 47.789845 126.62063Q46.55547 126.62063 45.83672 125.73Q44.99297 124.6675 44.99297 122.24563ZM46.071095 122.24563Q46.071095 124.355 46.571095 125.05813Q47.071095 125.76125 47.789845 125.76125Q48.52422 125.76125 49.008595 125.05813Q49.508595 124.355 49.508595 122.24563Q49.508595 120.12063 49.008595 119.43313Q48.52422 118.73 47.77422 118.73Q47.05547 118.73 46.61797 119.33938Q46.071095 120.12063 46.071095 122.24563Z" fill-rule="nonzero"/><path fill="#000000" d="M13.961719 91.47L12.914844 91.47L12.914844 84.75125Q12.524219 85.11063 11.899219 85.48563Q11.289844 85.845 10.805469 86.01688L10.805469 85.00125Q11.680469 84.57938 12.336719 84.00125Q13.008594 83.4075 13.289844 82.845L13.961719 82.845L13.961719 91.47ZM16.99297 89.22L18.102345 89.12625Q18.227345 89.93875 18.664845 90.345Q19.11797 90.75125 19.758595 90.75125Q20.508595 90.75125 21.039845 90.17313Q21.571095 89.595 21.571095 88.6575Q21.571095 87.75125 21.05547 87.23563Q20.55547 86.70438 19.727345 86.70438Q19.227345 86.70438 18.80547 86.93875Q18.39922 87.17313 18.164845 87.5325L17.18047 87.4075L18.008595 83.00125L22.289845 83.00125L22.289845 84.00125L18.852345 84.00125L18.39922 86.31375Q19.164845 85.76688 20.008595 85.76688Q21.133595 85.76688 21.89922 86.54813Q22.68047 87.32938 22.68047 88.56375Q22.68047 89.72 22.008595 90.57938Q21.18047 91.61063 19.758595 91.61063Q18.58672 91.61063 17.83672 90.95438Q17.102345 90.29813 16.99297 89.22ZM23.99297 87.23563Q23.99297 85.70438 24.30547 84.7825Q24.61797 83.845 25.227345 83.345Q25.852345 82.845 26.789845 82.845Q27.477345 82.845 27.99297 83.12625Q28.52422 83.4075 28.86797 83.93875Q29.21172 84.45438 29.39922 85.20438Q29.58672 85.95438 29.58672 87.23563Q29.58672 88.75125 29.27422 89.67313Q28.977345 90.595 28.352345 91.11063Q27.74297 91.61063 26.789845 91.61063Q25.55547 91.61063 24.83672 90.72Q23.99297 89.6575 23.99297 87.23563ZM25.071095 87.23563Q25.071095 89.345 25.571095 90.04813Q26.071095 90.75125 26.789845 90.75125Q27.52422 90.75125 28.008595 90.04813Q28.508595 89.345 28.508595 87.23563Q28.508595 85.11063 28.008595 84.42313Q27.52422 83.72 26.77422 83.72Q26.05547 83.72 25.61797 84.32938Q25.071095 85.11063 25.071095 87.23563ZM30.99297 87.23563Q30.99297 85.70438 31.30547 84.7825Q31.61797 83.845 32.227345 83.345Q32.852345 82.845 33.789845 82.845Q34.477345 82.845 34.99297 83.12625Q35.52422 83.4075 35.86797 83.93875Q36.21172 84.45438 36.39922 85.20438Q36.58672 85.95438 36.58672 87.23563Q36.58672 88.75125 36.27422 89.67313Q35.977345 90.595 35.352345 91.11063Q34.74297 91.61063 33.789845 91.61063Q32.55547 91.61063 31.83672 90.72Q30.99297 89.6575 30.99297 87.23563ZM32.071095 87.23563Q32.071095 89.345 32.571095 90.04813Q33.071095 90.75125 33.789845 90.75125Q34.52422 90.75125 35.008595 90.04813Q35.508595 89.345 35.508595 87.23563Q35.508595 85.11063 35.008595 84.42313Q34.52422 83.72 33.77422 83.72Q33.05547 83.72 32.61797 84.32938Q32.071095 85.11063 32.071095 87.23563ZM37.99297 87.23563Q37.99297 85.70438 38.30547 84.7825Q38.61797 83.845 39.227345 83.345Q39.852345 82.845 40.789845 82.845Q41.477345 82.845 41.99297 83.12625Q42.52422 83.4075 42.86797 83.93875Q43.21172 84.45438 43.39922 85.20438Q43.58672 85.95438 43.58672 87.23563Q43.58672 88.75125 43.27422 89.67313Q42.977345 90.595 42.352345 91.11063Q41.74297 91.61063 40.789845 91.61063Q39.55547 91.61063 38.83672 90.72Q37.99297 89.6575 37.99297 87.23563ZM39.071095 87.23563Q39.071095 89.345 39.571095 90.04813Q40.071095 90.75125 40.789845 90.75125Q41.52422 90.75125 42.008595 90.04813Q42.508595 89.345 42.508595 87.23563Q42.508595 85.11063 42.008595 84.42313Q41.52422 83.72 40.77422 83.72Q40.05547 83.72 39.61797 84.32938Q39.071095 85.11063 39.071095 87.23563ZM44.99297 87.23563Q44.99297 85.70438 45.30547 84.7825Q45.61797 83.845 46.227345 83.345Q46.852345 82.845 47.789845 82.845Q48.477345 82.845 48.99297 83.12625Q49.52422 83.4075 49.86797 83.93875Q50.21172 84.45438 50.39922 85.20438Q50.58672 85.95438 50.58672 87.23563Q50.58672 88.75125 50.27422 89.67313Q49.977345 90.595 49.352345 91.11063Q48.74297 91.61063 47.789845 91.61063Q46.55547 91.61063 45.83672 90.72Q44.99297 89.6575 44.99297 87.23563ZM46.071095 87.23563Q46.071095 89.345 46.571095 90.04813Q47.071095 90.75125 47.789845 90.75125Q48.52422 90.75125 49.008595 90.04813Q49.508595 89.345 49.508595 87.23563Q49.508595 85.11063 49.008595 84.42313Q48.52422 83.72 47.77422 83.72Q47.05547 83.72 46.61797 84.32938Q46.071095 85.11063 46.071095 87.23563Z" fill-rule="nonzero"/><path fill="#000000" d="M15.539844 55.444374L15.539844 56.46L9.852344 56.46Q9.852344 56.085 9.977344 55.725624Q10.196094 55.1475 10.664844 54.585Q11.149219 54.0225 12.055469 53.288124Q13.461719 52.131874 13.946094 51.46Q14.446094 50.788124 14.446094 50.194374Q14.446094 49.569374 13.992969 49.1475Q13.539844 48.71 12.821094 48.71Q12.055469 48.71 11.602344 49.163124Q11.149219 49.61625 11.133594 50.42875L10.055469 50.319374Q10.164844 49.100624 10.883594 48.475624Q11.617969 47.835 12.852344 47.835Q14.086719 47.835 14.805469 48.5225Q15.524219 49.21 15.524219 50.225624Q15.524219 50.74125 15.305469 51.24125Q15.102344 51.725624 14.602344 52.288124Q14.117969 52.835 12.992969 53.788124Q12.039844 54.585 11.758594 54.881874Q11.492969 55.163124 11.321094 55.444374L15.539844 55.444374ZM16.99297 52.225624Q16.99297 50.694374 17.30547 49.7725Q17.61797 48.835 18.227345 48.335Q18.852345 47.835 19.789845 47.835Q20.477345 47.835 20.99297 48.11625Q21.52422 48.3975 21.86797 48.92875Q22.21172 49.444374 22.39922 50.194374Q22.58672 50.944374 22.58672 52.225624Q22.58672 53.74125 22.27422 54.663124Q21.977345 55.585 21.352345 56.100624Q20.74297 56.600624 19.789845 56.600624Q18.55547 56.600624 17.83672 55.71Q16.99297 54.6475 16.99297 52.225624ZM18.071095 52.225624Q18.071095 54.335 18.571095 55.038124Q19.071095 55.74125 19.789845 55.74125Q20.52422 55.74125 21.008595 55.038124Q21.508595 54.335 21.508595 52.225624Q21.508595 50.100624 21.008595 49.413124Q20.52422 48.71 19.77422 48.71Q19.05547 48.71 18.61797 49.319374Q18.071095 50.100624 18.071095 52.225624ZM23.99297 52.225624Q23.99297 50.694374 24.30547 49.7725Q24.61797 48.835 25.227345 48.335Q25.852345 47.835 26.789845 47.835Q27.477345 47.835 27.99297 48.11625Q28.52422 48.3975 28.86797 48.92875Q29.21172 49.444374 29.39922 50.194374Q29.58672 50.944374 29.58672 52.225624Q29.58672 53.74125 29.27422 54.663124Q28.977345 55.585 28.352345 56.100624Q27.74297 56.600624 26.789845 56.600624Q25.55547 56.600624 24.83672 55.71Q23.99297 54.6475 23.99297 52.225624ZM25.071095 52.225624Q25.071095 54.335 25.571095 55.038124Q26.071095 55.74125 26.789845 55.74125Q27.52422 55.74125 28.008595 55.038124Q28.508595 54.335 28.508595 52.225624Q28.508595 50.100624 28.008595 49.413124Q27.52422 48.71 26.77422 48.71Q26.05547 48.71 25.61797 49.319374Q25.071095 50.100624 25.071095 52.225624ZM30.99297 52.225624Q30.99297 50.694374 31.30547 49.7725Q31.61797 48.835 32.227345 48.335Q32.852345 47.835 33.789845 47.835Q34.477345 47.835 34.99297 48.11625Q35.52422 48.3975 35.86797 48.92875Q36.21172 49.444374 36.39922 50.194374Q36.58672 50.944374 36.58672 52.225624Q36.58672 53.74125 36.27422 54.663124Q35.977345 55.585 35.352345 56.100624Q34.74297 56.600624 33.789845 56.600624Q32.55547 56.600624 31.83672 55.71Q30.99297 54.6475 30.99297 52.225624ZM32.071095 52.225624Q32.071095 54.335 32.571095 55.038124Q33.071095 55.74125 33.789845 55.74125Q34.52422 55.74125 35.008595 55.038124Q35.508595 54.335 35.508595 52.225624Q35.508595 50.100624 35.008595 49.413124Q34.52422 48.71 33.77422 48.71Q33.05547 48.71 32.61797 49.319374Q32.071095 50.100624 32.071095 52.225624ZM37.99297 52.225624Q37.99297 50.694374 38.30547 49.7725Q38.61797 48.835 39.227345 48.335Q39.852345 47.835 40.789845 47.835Q41.477345 47.835 41.99297 48.11625Q42.52422 48.3975 42.86797 48.92875Q43.21172 49.444374 43.39922 50.194374Q43.58672 50.944374 43.58672 52.225624Q43.58672 53.74125 43.27422 54.663124Q42.977345 55.585 42.352345 56.100624Q41.74297 56.600624 40.789845 56.600624Q39.55547 56.600624 38.83672 55.71Q37.99297 54.6475 37.99297 52.225624ZM39.071095 52.225624Q39.071095 54.335 39.571095 55.038124Q40.071095 55.74125 40.789845 55.74125Q41.52422 55.74125 42.008595 55.038124Q42.508595 54.335 42.508595 52.225624Q42.508595 50.100624 42.008595 49.413124Q41.52422 48.71 40.77422 48.71Q40.05547 48.71 39.61797 49.319374Q39.071095 50.100624 39.071095 52.225624ZM44.99297 52.225624Q44.99297 50.694374 45.30547 49.7725Q45.61797 48.835 46.227345 48.335Q46.852345 47.835 47.789845 47.835Q48.477345 47.835 48.99297 48.11625Q49.52422 48.3975 49.86797 48.92875Q50.21172 49.444374 50.39922 50.194374Q50.58672 50.944374 50.58672 52.225624Q50.58672 53.74125 50.27422 54.663124Q49.977345 55.585 49.352345 56.100624Q48.74297 56.600624 47.789845 56.600624Q46.55547 56.600624 45.83672 55.71Q44.99297 54.6475 44.99297 52.225624ZM46.071095 52.225624Q46.071095 54.335 46.571095 55.038124Q47.071095 55.74125 47.789845 55.74125Q48.52422 55.74125 49.008595 55.038124Q49.508595 54.335 49.508595 52.225624Q49.508595 50.100624 49.008595 49.413124Q48.52422 48.71 47.77422 48.71Q47.05547 48.71 46.61797 49.319374Q46.071095 50.100624 46.071095 52.225624Z" fill-rule="nonzero"/><path fill="#000000" d="M15.539844 20.434376L15.539844 21.45L9.852344 21.45Q9.852344 21.075 9.977344 20.715626Q10.196094 20.1375 10.664844 19.575Q11.149219 19.0125 12.055469 18.278126Q13.461719 17.121876 13.946094 16.45Q14.446094 15.778126 14.446094 15.184376Q14.446094 14.559376 13.992969 14.137501Q13.539844 13.700001 12.821094 13.700001Q12.055469 13.700001 11.602344 14.153126Q11.149219 14.606251 11.133594 15.418751L10.055469 15.309376Q10.164844 14.090626 10.883594 13.465626Q11.617969 12.825001 12.852344 12.825001Q14.086719 12.825001 14.805469 13.512501Q15.524219 14.200001 15.524219 15.215626Q15.524219 15.731251 15.305469 16.23125Q15.102344 16.715626 14.602344 17.278126Q14.117969 17.825 12.992969 18.778126Q12.039844 19.575 11.758594 19.871876Q11.492969 20.153126 11.321094 20.434376L15.539844 20.434376ZM16.99297 19.2L18.102345 19.10625Q18.227345 19.91875 18.664845 20.325Q19.11797 20.73125 19.758595 20.73125Q20.508595 20.73125 21.039845 20.153126Q21.571095 19.575 21.571095 18.6375Q21.571095 17.73125 21.05547 17.215626Q20.55547 16.684376 19.727345 16.684376Q19.227345 16.684376 18.80547 16.91875Q18.39922 17.153126 18.164845 17.5125L17.18047 17.3875L18.008595 12.981251L22.289845 12.981251L22.289845 13.981251L18.852345 13.981251L18.39922 16.29375Q19.164845 15.746876 20.008595 15.746876Q21.133595 15.746876 21.89922 16.528126Q22.68047 17.309376 22.68047 18.54375Q22.68047 19.7 22.008595 20.559376Q21.18047 21.590626 19.758595 21.590626Q18.58672 21.590626 17.83672 20.934376Q17.102345 20.278126 16.99297 19.2ZM23.99297 17.215626Q23.99297 15.684376 24.30547 14.762501Q24.61797 13.825001 25.227345 13.325001Q25.852345 12.825001 26.789845 12.825001Q27.477345 12.825001 27.99297 13.106251Q28.52422 13.387501 28.86797 13.918751Q29.21172 14.434376 29.39922 15.184376Q29.58672 15.934376 29.58672 17.215626Q29.58672 18.73125 29.27422 19.653126Q28.977345 20.575 28.352345 21.090626Q27.74297 21.590626 26.789845 21.590626Q25.55547 21.590626 24.83672 20.7Q23.99297 19.6375 23.99297 17.215626ZM25.071095 17.215626Q25.071095 19.325 25.571095 20.028126Q26.071095 20.73125 26.789845 20.73125Q27.52422 20.73125 28.008595 20.028126Q28.508595 19.325 28.508595 17.215626Q28.508595 15.090626 28.008595 14.403126Q27.52422 13.700001 26.77422 13.700001Q26.05547 13.700001 25.61797 14.309376Q25.071095 15.090626 25.071095 17.215626ZM30.99297 17.215626Q30.99297 15.684376 31.30547 14.762501Q31.61797 13.825001 32.227345 13.325001Q32.852345 12.825001 33.789845 12.825001Q34.477345 12.825001 34.99297 13.106251Q35.52422 13.387501 35.86797 13.918751Q36.21172 14.434376 36.39922 15.184376Q36.58672 15.934376 36.58672 17.215626Q36.58672 18.73125 36.27422 19.653126Q35.977345 20.575 35.352345 21.090626Q34.74297 21.590626 33.789845 21.590626Q32.55547 21.590626 31.83672 20.7Q30.99297 19.6375 30.99297 17.215626ZM32.071095 17.215626Q32.071095 19.325 32.571095 20.028126Q33.071095 20.73125 33.789845 20.73125Q34.52422 20.73125 35.008595 20.028126Q35.508595 19.325 35.508595 17.215626Q35.508595 15.090626 35.008595 14.403126Q34.52422 13.700001 33.77422 13.700001Q33.05547 13.700001 32.61797 14.309376Q32.071095 15.090626 32.071095 17.215626ZM37.99297 17.215626Q37.99297 15.684376 38.30547 14.762501Q38.61797 13.825001 39.227345 13.325001Q39.852345 12.825001 40.789845 12.825001Q41.477345 12.825001 41.99297 13.106251Q42.52422 13.387501 42.86797 13.918751Q43.21172 14.434376 43.39922 15.184376Q43.58672 15.934376 43.58672 17.215626Q43.58672 18.73125 43.27422 19.653126Q42.977345 20.575 42.352345 21.090626Q41.74297 21.590626 40.789845 21.590626Q39.55547 21.590626 38.83672 20.7Q37.99297 19.6375 37.99297 17.215626ZM39.071095 17.215626Q39.071095 19.325 39.571095 20.028126Q40.071095 20.73125 40.789845 20.73125Q41.52422 20.73125 42.008595 20.028126Q42.508595 19.325 42.508595 17.215626Q42.508595 15.090626 42.008595 14.403126Q41.52422 13.700001 40.77422 13.700001Q40.05547 13.700001 39.61797 14.309376Q39.071095 15.090626 39.071095 17.215626ZM44.99297 17.215626Q44.99297 15.684376 45.30547 14.762501Q45.61797 13.825001 46.227345 13.325001Q46.852345 12.825001 47.789845 12.825001Q48.477345 12.825001 48.99297 13.106251Q49.52422 13.387501 49.86797 13.918751Q50.21172 14.434376 50.39922 15.184376Q50.58672 15.934376 50.58672 17.215626Q50.58672 18.73125 50.27422 19.653126Q49.977345 20.575 49.352345 21.090626Q48.74297 21.590626 47.789845 21.590626Q46.55547 21.590626 45.83672 20.7Q44.99297 19.6375 44.99297 17.215626ZM46.071095 17.215626Q46.071095 19.325 46.571095 20.028126Q47.071095 20.73125 47.789845 20.73125Q48.52422 20.73125 49.008595 20.028126Q49.508595 19.325 49.508595 17.215626Q49.508595 15.090626 49.008595 14.403126Q48.52422 13.700001 47.77422 13.700001Q47.05547 13.700001 46.61797 14.309376Q46.071095 15.090626 46.071095 17.215626Z" fill-rule="nonzero"/><path fill="#000000" d="M83.72278 209.5L82.6759 209.5L82.6759 202.78125Q82.28528 203.14062 81.66028 203.51562Q81.0509 203.875 80.56653 204.04688L80.56653 203.03125Q81.44153 202.60938 82.09778 202.03125Q82.76965 201.4375 83.0509 200.875L83.72278 200.875L83.72278 209.5ZM86.75403 205.26562Q86.75403 203.73438 87.06653 202.8125Q87.37903 201.875 87.9884 201.375Q88.6134 200.875 89.5509 200.875Q90.2384 200.875 90.75403 201.15625Q91.28528 201.4375 91.62903 201.96875Q91.97278 202.48438 92.16028 203.23438Q92.34778 203.98438 92.34778 205.26562Q92.34778 206.78125 92.03528 207.70312Q91.7384 208.625 91.1134 209.14062Q90.50403 209.64062 89.5509 209.64062Q88.31653 209.64062 87.59778 208.75Q86.75403 207.6875 86.75403 205.26562ZM87.83215 205.26562Q87.83215 207.375 88.33215 208.07812Q88.83215 208.78125 89.5509 208.78125Q90.28528 208.78125 90.76965 208.07812Q91.26965 207.375 91.26965 205.26562Q91.26965 203.14062 90.76965 202.45312Q90.28528 201.75 89.53528 201.75Q88.81653 201.75 88.37903 202.35938Q87.83215 203.14062 87.83215 205.26562ZM93.75403 205.26562Q93.75403 203.73438 94.06653 202.8125Q94.37903 201.875 94.9884 201.375Q95.6134 200.875 96.5509 200.875Q97.2384 200.875 97.75403 201.15625Q98.28528 201.4375 98.62903 201.96875Q98.97278 202.48438 99.16028 203.23438Q99.34778 203.98438 99.34778 205.26562Q99.34778 206.78125 99.03528 207.70312Q98.7384 208.625 98.1134 209.14062Q97.50403 209.64062 96.5509 209.64062Q95.31653 209.64062 94.59778 208.75Q93.75403 207.6875 93.75403 205.26562ZM94.83215 205.26562Q94.83215 207.375 95.33215 208.07812Q95.83215 208.78125 96.5509 208.78125Q97.28528 208.78125 97.76965 208.07812Q98.26965 207.375 98.26965 205.26562Q98.26965 203.14062 97.76965 202.45312Q97.28528 201.75 96.53528 201.75Q95.81653 201.75 95.37903 202.35938Q94.83215 203.14062 94.83215 205.26562ZM100.75403 205.26562Q100.75403 203.73438 101.06653 202.8125Q101.37903 201.875 101.9884 201.375Q102.6134 200.875 103.5509 200.875Q104.2384 200.875 104.75403 201.15625Q105.28528 201.4375 105.62903 201.96875Q105.97278 202.48438 106.16028 203.23438Q106.34778 203.98438 106.34778 205.26562Q106.34778 206.78125 106.03528 207.70312Q105.7384 208.625 105.1134 209.14062Q104.50403 209.64062 103.5509 209.64062Q102.31653 209.64062 101.59778 208.75Q100.75403 207.6875 100.75403 205.26562ZM101.83215 205.26562Q101.83215 207.375 102.33215 208.07812Q102.83215 208.78125 103.5509 208.78125Q104.28528 208.78125 104.76965 208.07812Q105.26965 207.375 105.26965 205.26562Q105.26965 203.14062 104.76965 202.45312Q104.28528 201.75 103.53528 201.75Q102.81653 201.75 102.37903 202.35938Q101.83215 203.14062 101.83215 205.26562ZM107.75403 205.26562Q107.75403 203.73438 108.06653 202.8125Q108.37903 201.875 108.9884 201.375Q109.6134 200.875 110.5509 200.875Q111.2384 200.875 111.75403 201.15625Q112.28528 201.4375 112.62903 201.96875Q112.97278 202.48438 113.16028 203.23438Q113.34778 203.98438 113.34778 205.26562Q113.34778 206.78125 113.03528 207.70312Q112.7384 208.625 112.1134 209.14062Q111.50403 209.64062 110.5509 209.64062Q109.31653 209.64062 108.59778 208.75Q107.75403 207.6875 107.75403 205.26562ZM108.83215 205.26562Q108.83215 207.375 109.33215 208.07812Q109.83215 208.78125 110.5509 208.78125Q111.28528 208.78125 111.76965 208.07812Q112.26965 207.375 112.26965 205.26562Q112.26965 203.14062 111.76965 202.45312Q111.28528 201.75 110.53528 201.75Q109.81653 201.75 109.37903 202.35938Q108.83215 203.14062 108.83215 205.26562ZM114.75403 205.26562Q114.75403 203.73438 115.06653 202.8125Q115.37903 201.875 115.9884 201.375Q116.6134 200.875 117.5509 200.875Q118.2384 200.875 118.75403 201.15625Q119.28528 201.4375 119.62903 201.96875Q119.97278 202.48438 120.16028 203.23438Q120.34778 203.98438 120.34778 205.26562Q120.34778 206.78125 120.03528 207.70312Q119.7384 208.625 119.1134 209.14062Q118.50403 209.64062 117.5509 209.64062Q116.31653 209.64062 115.59778 208.75Q114.75403 207.6875 114.75403 205.26562ZM115.83215 205.26562Q115.83215 207.375 116.33215 208.07812Q116.83215 208.78125 117.5509 208.78125Q118.28528 208.78125 118.76965 208.07812Q119.26965 207.375 119.26965 205.26562Q119.26965 203.14062 118.76965 202.45312Q118.28528 201.75 117.53528 201.75Q116.81653 201.75 116.37903 202.35938Q115.83215 203.14062 115.83215 205.26562ZM121.75403 205.26562Q121.75403 203.73438 122.06653 202.8125Q122.37903 201.875 122.9884 201.375Q123.6134 200.875 124.5509 200.875Q125.2384 200.875 125.75403 201.15625Q126.28528 201.4375 126.62903 201.96875Q126.97278 202.48438 127.16028 203.23438Q127.34778 203.98438 127.34778 205.26562Q127.34778 206.78125 127.03528 207.70312Q126.7384 208.625 126.1134 209.14062Q125.50403 209.64062 124.5509 209.64062Q123.31653 209.64062 122.59778 208.75Q121.75403 207.6875 121.75403 205.26562ZM122.83215 205.26562Q122.83215 207.375 123.33215 208.07812Q123.83215 208.78125 124.5509 208.78125Q125.28528 208.78125 125.76965 208.07812Q126.26965 207.375 126.26965 205.26562Q126.26965 203.14062 125.76965 202.45312Q125.28528 201.75 124.53528 201.75Q123.81653 201.75 123.37903 202.35938Q122.83215 203.14062 122.83215 205.26562Z" fill-rule="nonzero"/><path fill="#000000" d="M152.25769 209.5L151.21082 209.5L151.21082 202.78125Q150.82019 203.14062 150.19519 203.51562Q149.58582 203.875 149.10144 204.04688L149.10144 203.03125Q149.97644 202.60938 150.63269 202.03125Q151.30457 201.4375 151.58582 200.875L152.25769 200.875L152.25769 209.5ZM155.28894 205.26562Q155.28894 203.73438 155.60144 202.8125Q155.91394 201.875 156.52332 201.375Q157.14832 200.875 158.08582 200.875Q158.77332 200.875 159.28894 201.15625Q159.82019 201.4375 160.16394 201.96875Q160.50769 202.48438 160.69519 203.23438Q160.88269 203.98438 160.88269 205.26562Q160.88269 206.78125 160.57019 207.70312Q160.27332 208.625 159.64832 209.14062Q159.03894 209.64062 158.08582 209.64062Q156.85144 209.64062 156.13269 208.75Q155.28894 207.6875 155.28894 205.26562ZM156.36707 205.26562Q156.36707 207.375 156.86707 208.07812Q157.36707 208.78125 158.08582 208.78125Q158.82019 208.78125 159.30457 208.07812Q159.80457 207.375 159.80457 205.26562Q159.80457 203.14062 159.30457 202.45312Q158.82019 201.75 158.07019 201.75Q157.35144 201.75 156.91394 202.35938Q156.36707 203.14062 156.36707 205.26562ZM162.28894 205.26562Q162.28894 203.73438 162.60144 202.8125Q162.91394 201.875 163.52332 201.375Q164.14832 200.875 165.08582 200.875Q165.77332 200.875 166.28894 201.15625Q166.82019 201.4375 167.16394 201.96875Q167.50769 202.48438 167.69519 203.23438Q167.88269 203.98438 167.88269 205.26562Q167.88269 206.78125 167.57019 207.70312Q167.27332 208.625 166.64832 209.14062Q166.03894 209.64062 165.08582 209.64062Q163.85144 209.64062 163.13269 208.75Q162.28894 207.6875 162.28894 205.26562ZM163.36707 205.26562Q163.36707 207.375 163.86707 208.07812Q164.36707 208.78125 165.08582 208.78125Q165.82019 208.78125 166.30457 208.07812Q166.80457 207.375 166.80457 205.26562Q166.80457 203.14062 166.30457 202.45312Q165.82019 201.75 165.07019 201.75Q164.35144 201.75 163.91394 202.35938Q163.36707 203.14062 163.36707 205.26562ZM169.28894 205.26562Q169.28894 203.73438 169.60144 202.8125Q169.91394 201.875 170.52332 201.375Q171.14832 200.875 172.08582 200.875Q172.77332 200.875 173.28894 201.15625Q173.82019 201.4375 174.16394 201.96875Q174.50769 202.48438 174.69519 203.23438Q174.88269 203.98438 174.88269 205.26562Q174.88269 206.78125 174.57019 207.70312Q174.27332 208.625 173.64832 209.14062Q173.03894 209.64062 172.08582 209.64062Q170.85144 209.64062 170.13269 208.75Q169.28894 207.6875 169.28894 205.26562ZM170.36707 205.26562Q170.36707 207.375 170.86707 208.07812Q171.36707 208.78125 172.08582 208.78125Q172.82019 208.78125 173.30457 208.07812Q173.80457 207.375 173.80457 205.26562Q173.80457 203.14062 173.30457 202.45312Q172.82019 201.75 172.07019 201.75Q171.35144 201.75 170.91394 202.35938Q170.36707 203.14062 170.36707 205.26562ZM176.28894 205.26562Q176.28894 203.73438 176.60144 202.8125Q176.91394 201.875 177.52332 201.375Q178.14832 200.875 179.08582 200.875Q179.77332 200.875 180.28894 201.15625Q180.82019 201.4375 181.16394 201.96875Q181.50769 202.48438 181.69519 203.23438Q181.88269 203.98438 181.88269 205.26562Q181.88269 206.78125 181.57019 207.70312Q181.27332 208.625 180.64832 209.14062Q180.03894 209.64062 179.08582 209.64062Q177.85144 209.64062 177.13269 208.75Q176.28894 207.6875 176.28894 205.26562ZM177.36707 205.26562Q177.36707 207.375 177.86707 208.07812Q178.36707 208.78125 179.08582 208.78125Q179.82019 208.78125 180.30457 208.07812Q180.80457 207.375 180.80457 205.26562Q180.80457 203.14062 180.30457 202.45312Q179.82019 201.75 179.07019 201.75Q178.35144 201.75 177.91394 202.35938Q177.36707 203.14062 177.36707 205.26562ZM183.28894 205.26562Q183.28894 203.73438 183.60144 202.8125Q183.91394 201.875 184.52332 201.375Q185.14832 200.875 186.08582 200.875Q186.77332 200.875 187.28894 201.15625Q187.82019 201.4375 188.16394 201.96875Q188.50769 202.48438 188.69519 203.23438Q188.88269 203.98438 188.88269 205.26562Q188.88269 206.78125 188.57019 207.70312Q188.27332 208.625 187.64832 209.14062Q187.03894 209.64062 186.08582 209.64062Q184.85144 209.64062 184.13269 208.75Q183.28894 207.6875 183.28894 205.26562ZM184.36707 205.26562Q184.36707 207.375 184.86707 208.07812Q185.36707 208.78125 186.08582 208.78125Q186.82019 208.78125 187.30457 208.07812Q187.80457 207.375 187.80457 205.26562Q187.80457 203.14062 187.30457 202.45312Q186.82019 201.75 186.07019 201.75Q185.35144 201.75 184.91394 202.35938Q184.36707 203.14062 184.36707 205.26562ZM190.28894 205.26562Q190.28894 203.73438 190.60144 202.8125Q190.91394 201.875 191.52332 201.375Q192.14832 200.875 193.08582 200.875Q193.77332 200.875 194.28894 201.15625Q194.82019 201.4375 195.16394 201.96875Q195.50769 202.48438 195.69519 203.23438Q195.88269 203.98438 195.88269 205.26562Q195.88269 206.78125 195.57019 207.70312Q195.27332 208.625 194.64832 209.14062Q194.03894 209.64062 193.08582 209.64062Q191.85144 209.64062 191.13269 208.75Q190.28894 207.6875 190.28894 205.26562ZM191.36707 205.26562Q191.36707 207.375 191.86707 208.07812Q192.36707 208.78125 193.08582 208.78125Q193.82019 208.78125 194.30457 208.07812Q194.80457 207.375 194.80457 205.26562Q194.80457 203.14062 194.30457 202.45312Q193.82019 201.75 193.07019 201.75Q192.35144 201.75 191.91394 202.35938Q191.36707 203.14062 191.36707 205.26562Z" fill-rule="nonzero"/></svg>